<?xml version="1.0" encoding="utf-8"?>
<!-- Generator: Adobe Illustrator 19.0.0, SVG Export Plug-In . SVG Version: 6.00 Build 0)  -->
<svg version="1.1" id="Layer_1" xmlns="http://www.w3.org/2000/svg" xmlns:xlink="http://www.w3.org/1999/xlink" x="0px" y="0px"
	 viewBox="0 0 294.5 60.5" style="enable-background:new 0 0 294.5 60.5;" xml:space="preserve">
<style type="text/css">
	.st0{fill-rule:evenodd;clip-rule:evenodd;fill:#0C0C0C;}
	.st1{fill:#0C0C0C;}
</style>
<g id="XMLID_199_">
	<g id="XMLID_9401_">
		<circle id="XMLID_9434_" class="st0" cx="29" cy="25" r="2.9"/>
		<path id="XMLID_9430_" class="st0" d="M30.2,30.8l-2.5,0c-2.3,0-4.3,1.2-4.4,3.9c0,2.7,1.8,4.8,4.2,4.9l1.3,0l1.3,0
			c2.3,0,4.3-2.1,4.3-4.8C34.4,32.1,32.6,30.8,30.2,30.8z"/>
		<path id="XMLID_9403_" class="st0" d="M28.9,4.6C14.8,4.6,3.3,16.1,3.3,30.3s11.5,25.7,25.7,25.7s25.7-11.5,25.7-25.7
			S43.1,4.6,28.9,4.6z M33.9,40.6c-2.2,1.7-4.7,1.7-5.1,1.7c-0.5,0-3,0-5.1-1.8c-3.2-2.7-2.8-6-2.8-6s0.5-4.2,0.7-5.5
			c0.3-1.7,1.3-7,1.3-7s0.3-1.5,1.7-2.5c1.6-1.1,3.3-1.3,4.4-1.2l0,0.8l0-0.8c1.1,0,2.8,0.2,4.4,1.3c1.3,1,1.6,2.5,1.6,2.5
			s1,5.2,1.2,7c0.2,1.4,0.6,5.5,0.6,5.5S37.2,38,33.9,40.6z"/>
	</g>
	<g id="XMLID_7754_">
		<g id="XMLID_164_">
			<path id="XMLID_178_" class="st1" d="M66.8,28.8c0-7.8,5.8-13.2,13.4-13.2c5.1,0,8.3,2.7,10.2,5.7l-3.8,1.9
				c-1.2-2.1-3.7-3.7-6.4-3.7c-5,0-8.8,3.9-8.8,9.2s3.7,9.2,8.8,9.2c2.7,0,5.2-1.6,6.4-3.7l3.8,1.9c-1.9,3.1-5.1,5.7-10.2,5.7
				C72.6,41.9,66.8,36.6,66.8,28.8z"/>
			<path id="XMLID_175_" class="st1" d="M105.7,41.5v-2c-1.4,1.6-3.5,2.4-6,2.4c-3,0-6.4-2-6.4-6.1c0-4.2,3.4-6,6.4-6
				c2.5,0,4.6,0.8,6,2.4v-2.7c0-2.1-1.8-3.4-4.3-3.4c-2.1,0-3.9,0.8-5.5,2.3l-1.6-2.8c2.1-2,4.8-3,7.7-3c4.1,0,7.7,1.7,7.7,6.7v12.2
				H105.7z M105.7,37.3v-2.8c-0.9-1.3-2.6-1.9-4.4-1.9c-2.3,0-3.9,1.3-3.9,3.3c0,2,1.7,3.3,3.9,3.3C103,39.2,104.7,38.5,105.7,37.3z
				"/>
			<path id="XMLID_173_" class="st1" d="M127.9,41.5V29.9c0-2.9-1.4-3.8-3.7-3.8c-2.1,0-3.8,1.2-4.7,2.5v12.9h-4V23h4v2.5
				c1.2-1.4,3.6-3,6.5-3c4,0,6,2.1,6,5.9v13H127.9z"/>
			<path id="XMLID_171_" class="st1" d="M150.1,41.5V29.9c0-2.9-1.4-3.8-3.7-3.8c-2.1,0-3.8,1.2-4.7,2.5v12.9h-4V23h4v2.5
				c1.2-1.4,3.6-3,6.5-3c4,0,6,2.1,6,5.9v13H150.1z"/>
			<path id="XMLID_168_" class="st1" d="M158.7,32.2c0-5.3,3.9-9.7,9.3-9.7c5.5,0,9.1,4.2,9.1,10v1h-14.2c0.3,2.8,2.4,5.1,5.9,5.1
				c1.8,0,3.9-0.7,5.2-2l1.8,2.6c-1.8,1.8-4.5,2.7-7.5,2.7C162.8,41.9,158.7,38.1,158.7,32.2z M168,25.9c-3.4,0-5,2.6-5.2,4.9h10.4
				C173.1,28.6,171.6,25.9,168,25.9z"/>
			<path id="XMLID_165_" class="st1" d="M194.6,41.5v-2.5c-1.4,1.8-3.5,3-5.9,3c-4.7,0-8.2-3.6-8.2-9.7c0-6,3.4-9.7,8.2-9.7
				c2.3,0,4.4,1.1,5.9,3V16h4v25.4H194.6z M194.6,35.9v-7.3c-0.9-1.4-2.9-2.5-4.8-2.5c-3.2,0-5.2,2.6-5.2,6.1c0,3.5,2,6.1,5.2,6.1
				C191.7,38.4,193.6,37.3,194.6,35.9z"/>
		</g>
	</g>
	<g id="XMLID_7578_">
		<polygon id="XMLID_7748_" class="st1" points="223.2,26.8 207.2,26.8 207.2,14.9 204.5,14.9 204.5,42.1 207.2,42.1 207.2,29.4 
			223.2,29.4 223.2,42.1 225.9,42.1 225.9,14.9 223.2,14.9 		"/>
		<path id="XMLID_7738_" class="st1" d="M240.2,21.5c-5.3,0-9.5,4.6-9.5,10.5c0,6.1,4.1,10.5,9.9,10.5c3.1,0,5.5-1.1,7.7-3.3
			l0.5-0.5l-1.7-1.8l-0.5,0.6c-1.6,1.7-3.6,2.6-5.9,2.6c-3.8,0-6.6-2.8-7-6.9h16V32C249.5,26.8,246.6,21.5,240.2,21.5z M233.6,30.6
			c0.4-3.3,2.7-6.5,6.6-6.5c4.5,0,6.3,3.7,6.6,6.5H233.6z"/>
		<path id="XMLID_7603_" class="st1" d="M261.8,21.5c-3.1,0-5.3,1-7.4,3.5l-0.5,0.6l2,1.8l0.5-0.6c1.6-1.9,3.1-2.7,5.4-2.7
			c2.1,0,4.5,1,4.5,3.9v2.5c-1.6-1.2-3.5-1.8-5.7-1.8c-3.5,0-7.2,2.4-7.2,6.9c0,4.5,3.7,6.9,7.2,6.9c2.2,0,4.1-0.6,5.7-1.8v1.3h2.6
			V27.9C268.9,24,266.2,21.5,261.8,21.5z M266.2,33.5v4.1c-1.2,1.5-3.2,2.4-5.4,2.4c-2.8,0-4.8-1.8-4.8-4.4c0-2.6,2-4.4,4.8-4.4
			C263.1,31.2,265,32,266.2,33.5z"/>
		<path id="XMLID_7579_" class="st1" d="M288.6,14.9v9c-1.6-1.5-3.7-2.4-5.9-2.4c-5.4,0-9.1,4.2-9.1,10.5c0,6.3,3.6,10.5,9.1,10.5
			c2.2,0,4.3-0.9,5.9-2.3v1.9h2.7V14.9H288.6z M288.6,36.8c-1,1.6-3.3,3.2-5.9,3.2c-3.8,0-6.3-3.1-6.3-7.9c0-3.7,1.6-8,6.3-8
			c2.6,0,4.9,1.6,5.9,3.2V36.8z"/>
	</g>
</g>
</svg>
