<?xml version="1.0" encoding="utf-8"?>
<!-- Generator: Adobe Illustrator 16.0.0, SVG Export Plug-In . SVG Version: 6.00 Build 0)  -->
<!DOCTYPE svg PUBLIC "-//W3C//DTD SVG 1.1//EN" "http://www.w3.org/Graphics/SVG/1.1/DTD/svg11.dtd">
<svg version="1.1" xmlns="http://www.w3.org/2000/svg" xmlns:xlink="http://www.w3.org/1999/xlink" x="0px" y="0px"
	 width="436.709px" height="734.62px" viewBox="0 0 436.709 734.62" enable-background="new 0 0 436.709 734.62"
	 xml:space="preserve">
<g id="Capa_1">
	<g>
		<g>
			<linearGradient id="SVGID_1_" gradientUnits="userSpaceOnUse" x1="0" y1="671.0742" x2="436.709" y2="671.0742">
				<stop  offset="0" style="stop-color:#999999"/>
				<stop  offset="0.4892" style="stop-color:#B3B3B3"/>
				<stop  offset="1" style="stop-color:#999999"/>
			</linearGradient>
			<path fill="url(#SVGID_1_)" d="M218.359,607.528C38.622,607.528,0,639.933,0,639.933s20.573,41.523,21.157,42.183
				c8.42,9.603,88.158,52.505,196.911,52.505c106.84,0,188.53-38.557,196.819-51.785l21.821-45.076
				C436.709,637.759,377.514,607.528,218.359,607.528z"/>
			<g>
				<defs>
					<path id="XMLID_3_" d="M30.865,43.37c0,0-30.865,46.263-30.865,68.888c0,136.398,0,526.93,0,526.93s49.784,65.02,218.354,65.02
						c169.229,0,218.354-66.076,218.354-66.076s0-390.643,0-527.322c0-23.35-33.038-71.69-33.038-71.69L30.865,43.37z"/>
				</defs>
				<linearGradient id="XMLID_2_" gradientUnits="userSpaceOnUse" x1="0" y1="371.6641" x2="436.709" y2="371.6641">
					<stop  offset="0.0323" style="stop-color:#0E839E"/>
					<stop  offset="0.149" style="stop-color:#0F95B3"/>
					<stop  offset="0.3498" style="stop-color:#11AED1"/>
					<stop  offset="0.5218" style="stop-color:#13BDE3"/>
					<stop  offset="0.6436" style="stop-color:#13C3EA"/>
					<stop  offset="0.7395" style="stop-color:#13C0E7"/>
					<stop  offset="0.8162" style="stop-color:#12B8DD"/>
					<stop  offset="0.8863" style="stop-color:#11AACC"/>
					<stop  offset="0.952" style="stop-color:#0F96B4"/>
					<stop  offset="1" style="stop-color:#0E839E"/>
				</linearGradient>
				<use xlink:href="#XMLID_3_"  overflow="visible" fill="url(#XMLID_2_)"/>
				<clipPath id="XMLID_4_">
					<use xlink:href="#XMLID_3_"  overflow="visible"/>
				</clipPath>
				<g clip-path="url(#XMLID_4_)">
					<g>
						<g>
							<path fill="#FFFFFF" d="M391.517,410.127c-0.325,103.441-82.38,198.477-189.567,193.7
								C96.064,599.108,12.768,505.034,12.77,400.619c0.002-105.539,86.724-181.414,190.202-178.444
								C305.931,225.129,391.847,305.197,391.517,410.127z"/>
							<path fill="#13BDEC" d="M201.941,608.658C93.397,603.79,7.95,507.25,7.934,400.22
								C7.917,291.963,96.904,214.337,202.98,217.344c105.423,2.988,193.666,84.892,193.338,192.399
								C395.995,515.708,311.83,613.586,201.941,608.658z M202.964,227.004c-100.67-2.9-185.34,71.4-185.359,174.012
								C17.586,502.607,98.985,594.422,201.959,599c104.225,4.634,184.436-87.812,184.757-188.507
								C387.041,308.368,303.248,229.903,202.964,227.004z"/>
						</g>
						<g>
							<path fill="#FFFFFF" d="M459.881,568.857c-0.139,31.802-25.094,62.546-57.637,64.776
								c-31.81,2.181-57.423-25.192-57.358-56.267c0.065-31.83,25.883-59.156,57.5-61.668
								C433.727,513.209,460.018,537.365,459.881,568.857z"/>
							<path opacity="0.8" fill="#FFFFFF" d="M481.293,464.304c-0.209,19.591-15.444,38.126-35.114,40.57
								c-19.115,2.375-34.921-13.26-34.795-32.135c0.131-19.552,15.612-36.925,35.012-39.4
								C465.268,430.931,481.496,445.246,481.293,464.304z"/>
							<path opacity="0.6" fill="#FFFFFF" d="M479.809,383.011c-0.214,14.562-11.449,28.021-25.956,30.051
								c-13.976,1.954-25.868-9.386-25.707-23.31c0.168-14.523,11.493-27.443,25.88-29.476
								C467.895,358.317,480.015,369,479.809,383.011z"/>
							<path opacity="0.4" fill="#FFFFFF" d="M467.348,317.398c-0.185,11.629-9.12,22.223-20.663,23.823
								c-11.077,1.536-20.653-7.487-20.503-18.582c0.157-11.59,9.121-21.883,20.608-23.498
								C457.831,297.589,467.524,306.264,467.348,317.398z"/>
							<path opacity="0.2" fill="#FFFFFF" d="M439.291,272.386c-0.012,7.359-5.854,14.051-13.033,14.871
								c-7.181,0.82-12.98-4.531-12.97-11.876c0.011-7.343,5.828-13.915,13.009-14.749
								C433.477,259.798,439.303,265.029,439.291,272.386z"/>
						</g>
						<g>
							<path fill="#7B12B2" d="M249.207,531.508c-0.011,13.874-11.589,25.581-25.553,25.04
								c-14.045-0.544-25.418-12.778-25.419-26.777c-0.001-13.868,11.675-25.296,25.559-24.81
								C237.83,505.452,249.218,517.498,249.207,531.508z"/>
							<path fill="#7B12B2" d="M268.541,504.646c-0.02,7.123-5.725,12.82-12.737,12.679c-7.015-0.142-12.684-6.056-12.663-13.162
								c0.021-7.105,5.724-12.726,12.737-12.601C262.89,491.687,268.561,497.523,268.541,504.646z"/>
							<path fill="#7B12B2" d="M276.915,472.171c-0.014,4.65-3.732,8.398-8.308,8.351c-4.573-0.048-8.273-3.866-8.26-8.509
								c0.014-4.642,3.736-8.353,8.309-8.313C273.23,463.74,276.929,467.521,276.915,472.171z"/>
							<path fill="#7B12B2" d="M271.681,451.801c-0.01,3.163-2.541,5.708-5.653,5.678c-3.111-0.03-5.631-2.62-5.621-5.779
								c0.01-3.155,2.543-5.688,5.654-5.661C269.173,446.064,271.69,448.642,271.681,451.801z"/>
							<g>
								<path fill="#A00082" d="M232.083,451.9c-1.243-0.032-2.377-0.141-3.411-0.308c-9.354-0.951-14.03-1.451-23.387-2.492
									c-9.767-0.36-14.652-0.563-24.424-1.01c-6.526,13.04-13.062,26.076-19.603,39.109c-0.014,4.729-0.02,7.094-0.033,11.823
									c-0.02,7.077-4.647,11.642-11.979,12.112c-4.653,9.268-9.304,18.537-13.951,27.809c-1.277,2.546-2.554,5.095-3.831,7.643
									c-1.444,2.882,0.268,6.698,3.78,6.88c24.384,1.258,48.791,2.48,73.173,3.489c1.406,0.059,3.194-0.688,3.8-2.049
									c10.565-23.747,21.101-47.545,31.587-71.338c6.688-15.175,13.295-30.393,19.944-45.588
									c-6.579-0.059-9.868-0.104-16.446-0.218C244.084,438.958,235.345,451.984,232.083,451.9z"/>
								<path fill="#A00082" d="M123.8,352.047c34.079,2.313,68.25,3.93,102.438,4.805c-0.875,1.775-3.845,7.64-4.722,9.413
									c20.525,0.454,41.038,0.64,61.568,0.519c3.863-3.112,13.938-5.63,14.089-5.626c0.534-1.247,2.754-6.358,3.29-7.607
									c8.407-19.573,16.777-39.171,25.098-58.778c1.302-3.068-0.168-6.734-3.782-6.588c-32.141,1.298-64.525,1.708-96.636,1.126
									c-33.606-0.61-67.393-2.371-101.049-4.772c-0.044-0.003-0.086-0.007-0.129-0.011c-2.404-0.18-4.415,1.688-4.42,4.109
									c-0.044,19.553-0.092,39.106-0.142,58.66C119.397,349.717,121.4,351.884,123.8,352.047z"/>
							</g>
							<g>
								<path fill="#E000B1" d="M234.792,446.14c-1.242-0.03-7.769-0.752-8.802-0.919c0.862,11.717,1.729,23.433,2.595,35.149
									c0.456-1.031,0.912-2.068,1.37-3.101c4.866-10.96,9.825-21.899,14.68-32.876
									C241.415,445.583,238.054,446.218,234.792,446.14z"/>
								<path fill="#E000B1" d="M212.638,426.304c-9.152,4.985-18.387,12.39-29.038,13.571c-5.487,4.854-12.276,4.715-19.243,4.359
									c-0.563-0.028-0.667,4.959-1.186,4.9c-0.604,1.202-1.208,2.402-1.81,3.602c-7.852,15.634-15.706,31.267-23.562,46.898
									c-5.462,10.878-10.923,21.755-16.38,32.635c-1.279,2.55-2.556,5.1-3.833,7.649c-1.444,2.884,0.267,6.703,3.783,6.887
									c24.396,1.276,48.809,2.542,73.195,3.634c1.409,0.063,3.192-0.68,3.795-2.037c5.066-11.39,10.147-22.791,15.216-34.188
									C216.992,485.579,213.519,455.092,212.638,426.304z"/>
								<path fill="none" d="M205.498,380.123c-0.005,1.75-0.008,2.624-0.013,4.374c19.196,0.596,38.384,0.981,57.589,1.132
									c-1.223-4.257-2.957-7.919-5.162-10.908c-18.049-0.169-36.082-0.551-54.123-1.118c0.075,1.686,0.764,2.9,1.155,3.557
									C205.208,377.604,205.504,378.104,205.498,380.123z"/>
								<path fill="#E000B1" d="M197.911,400.621c-0.007,2.377-0.153,4.771-0.366,7.15c7.788,0.3,11.681,0.434,19.467,0.666
									c0.515-0.85,1.098-1.666,1.805-2.356c0.012-3.666,0.018-5.499,0.029-9.165c-8.422-0.238-12.634-0.379-21.06-0.699
									C197.872,397.646,197.916,399.113,197.911,400.621z"/>
								<path fill="#E000B1" d="M311.693,289.333c1.3-3.05-0.172-6.724-3.782-6.608c-32.144,1.029-64.524,1.178-96.618,0.341
									c-33.636-0.877-67.449-2.898-101.124-5.567c-0.044-0.004-0.088-0.008-0.13-0.012c-2.407-0.199-4.421,1.655-4.426,4.081
									c-0.041,19.583-0.085,39.167-0.13,58.751c-0.006,2.426,1.999,4.607,4.401,4.785c34.097,2.516,68.291,4.352,102.504,5.459
									c-1.84,3.716-5.663,11.504-7.505,15.211c24.442,0.753,48.87,1.118,73.324,1.047c2.14-4.931,6.264-14.054,8.4-19.003
									C295.014,328.35,303.383,308.841,311.693,289.333z"/>
								<path fill="#E000B1" d="M251.633,385.543c7.426,0.079,11.139,0.101,18.566,0.103c1.58-3.63,3.162-7.262,4.744-10.899
									c-9.492,0.032-18.983-0.012-28.475-0.133C248.676,377.613,250.411,381.283,251.633,385.543z"/>
								<path fill="#E000B1" d="M240.65,408.999c7.428,0.137,11.141,0.188,18.568,0.253c1.58-3.861,3.162-7.727,4.745-11.595
									c-9.491-0.049-18.982-0.171-28.472-0.36C237.697,400.514,239.431,404.444,240.65,408.999z"/>
								<path fill="#E000B1" d="M215.629,373.976c-5.851-0.168-8.775-0.262-14.628-0.471c-1.745,3.501-3.483,6.998-5.228,10.496
									c0.014,0.044,0.022,0.097,0.035,0.146c8.609,0.332,12.914,0.477,21.52,0.721
									C217.327,384.868,215.703,375.661,215.629,373.976z"/>
								<path fill="#E000B1" d="M214.858,397.343c-0.014,4.411-0.021,6.619-0.034,11.03c10.543,0.325,15.811,0.456,26.352,0.647
									c0.163-1.595,0.254-3.075,0.258-4.334c0.008-2.691-0.136-5.124-0.414-7.262c-10.407-0.18-15.609-0.306-26.018-0.62
									C214.953,396.986,214.903,397.159,214.858,397.343z"/>
								<path fill="#E000B1" d="M228.751,426.319c2.401-0.738,5.204-1.264,8.448-1.598c0.554-1.108,1.053-2.376,1.501-3.725
									c-3.973-0.081-5.96-0.123-9.933-0.223C228.761,422.993,228.758,424.101,228.751,426.319z"/>
							</g>
							<path fill="#FFFFFF" d="M115.188,312.533c0.012-4.944,0.023-9.889,0.034-14.835c0.013-5.793-1.714-10.831,6.119-10.236
								c10.225,0.775,20.473,1.493,30.691,2.086c21.641,1.258,43.398,2.18,65.066,2.726c2.635,0.066,2.644-4.077,0.009-4.142
								c-24.328-0.604-48.742-1.694-73.032-3.216c-5.95-0.373-11.922-0.795-17.888-1.236c-3.98-0.293-9.829-1.621-12.86,1.28
								c-2.8,2.681-2.205,6.12-2.213,9.887c-0.013,5.79-0.025,11.579-0.038,17.367C111.07,314.89,115.181,315.207,115.188,312.533
								L115.188,312.533z"/>
							<path fill="#FFFFFF" d="M229.693,289.722c-0.004,1.706-1.367,3.065-3.051,3.036c-1.683-0.03-3.045-1.437-3.041-3.142
								c0.004-1.705,1.374-3.061,3.057-3.032C228.342,286.612,229.697,288.017,229.693,289.722z"/>
							<path fill="#FFFFFF" d="M229.075,376.608c2.878-1.954,6.411-3.172,9.872-3.489c9.708-0.891,14.698,8.176,16.948,16.413
								c0.117,0.43,0.775,0.252,0.657-0.178c-2.191-7.989-6.576-16.389-15.672-16.961c-4.155-0.262-8.734,1.292-12.146,3.61
								C228.376,376.249,228.713,376.855,229.075,376.608L229.075,376.608z"/>
							<g>
								<path fill="#FFFFFF" d="M328.4,404.897c-5.356,0.18-7.454,5.937-8.143,7.912c-0.813,2.333-1.966,4.28-3.528,5.762
									c-0.461-11.169-5.468-17.806-10.745-24.828c-2.012-2.676-4.081-5.431-6.021-8.594c1.32-2.604,3.292-6.837,3.304-11.065
									c0.021-7.269-4.177-12.058-10.438-11.959c-6.44,0.102-18.436,9.297-18.461,17.905c-0.008,2.804,0.689,5.53,2.122,8.271
									c-0.356,1.05-0.719,2.105-1.081,3.163c-1.769,5.163-3.592,10.473-4.979,15.284c-2.229,1.396-3.46,4.049-4.439,6.095
									c-2.014,4.206-3.316,6.819-5.909,8.271c1.325-5.517,2.02-11.776,2.091-17.741c0.173-14.412-5.865-33.666-23.324-33.88
									c-5.165-0.063-9.808,1.589-13.808,4.998c-2.411-2.316-5.83-3.774-9.696-3.885c-6.058-0.173-9.829,2.179-9.841,6.178
									c-0.005,1.704,0.712,2.9,1.093,3.544c0.242,0.41,0.518,0.872,0.512,2.732c-0.029,9.424-0.043,14.138-0.072,23.561
									c-1.411,1.364-2.315,3.277-3.109,4.906c-2.011,4.123-3.321,6.69-5.913,8.059c1.325-5.455,2.024-11.664,2.093-17.606
									c0.169-14.584-5.919-33.707-23.342-34.473c-5.178-0.228-9.821,1.287-13.824,4.576c-2.416-2.382-5.843-3.938-9.715-4.158
									c-6.068-0.344-9.846,1.907-9.857,5.906c-0.005,1.703,0.708,2.919,1.091,3.573c0.243,0.416,0.521,0.887,0.515,2.747
									c-0.025,8.973-0.039,13.46-0.064,22.432c-1.854,1.199-3.431,3.442-4.149,7.015c-2.725,13.552-6.23,13.58-6.373,13.571
									c-0.074-0.005-0.112-0.018-0.12-0.008c-0.229-0.191-0.757-1.266-0.753-2.895c0.03-10.817,0.045-16.228,0.075-27.045
									c0.009-3.19-1.261-6.094-3.406-8.326c2.547,0.043,6.358-1.065,6.378-8.039c0.019-6.702-5.071-11.894-12.096-12.364
									c-26.197-1.755-43.397,21.451-43.53,45.82c-0.079,14.384,7.99,30.182,23.97,31.219c5.023,0.326,9.666-0.98,13.653-3.806
									c3.427,3.229,7.896,5.159,12.848,5.454c4.924,0.293,9.433-0.937,13.395-3.605c-0.053,18.298-0.106,36.597-0.155,54.895
									c-0.022,8.22,5.829,9.42,8.345,9.552c8.042,0.42,13.25-3.989,13.271-11.207c0.046-15.421,0.091-30.842,0.137-46.263
									c0.953,0.176,2,0.298,3.149,0.354c6.428,0.317,13.283-2.228,18.344-6.713c7.076,0.052,13.572-1.332,19.05-4.001
									c-0.065,20.401-0.123,40.803-0.187,61.204c-0.024,8.222,5.822,9.331,8.337,9.422c8.031,0.289,13.233-4.229,13.255-11.462
									c0.046-15.452,0.09-30.905,0.14-46.357c0.953,0.153,1.999,0.253,3.146,0.282c6.419,0.165,13.273-2.561,18.332-7.196
									c6.144-0.11,11.746-1.267,16.73-3.444c0.413,0.48,0.853,0.955,1.318,1.41c4.159,4.061,13.162,8.276,21,8.244
									c6.615-0.027,12.711-2.184,17.73-6.242c9.134-0.982,16.694-4.075,22.909-9.43c4.427-3.814,9.19-11.538,9.205-16.739
									C338.871,411.39,334.188,404.703,328.4,404.897z M234.734,389.8c3.439,0.068,5.559,6.165,5.528,15.928
									c-0.015,4.894-1.376,13.401-3.909,18.477c-2.994,0.31-5.578,0.795-7.792,1.478c0.033-10.555,0.049-15.832,0.081-26.388
									C230.165,393.044,233.126,389.768,234.734,389.8z M296.3,419.601c-0.005,1.819-0.539,3.623-1.248,5.07
									c-2.716-0.564-6.172-1.963-9.369-3.408c0.776-1.023,1.367-2.261,1.734-3.649c1.279-4.836,2.382-8.675,3.557-12.24
									C294.093,409.429,296.316,413.906,296.3,419.601z M172.647,387.638c3.444,0.167,5.564,6.311,5.535,16.045
									c-0.015,4.88-1.375,13.326-3.912,18.322c-2.996,0.23-5.584,0.647-7.801,1.273c0.032-10.534,0.047-15.8,0.079-26.334
									C168.069,390.747,171.039,387.56,172.647,387.638z M111.868,416.968c-0.822,1.813-2.427,4.623-4.473,4.486
									c-4.173-0.278-4.609-6.45-4.603-9.092c0.028-11.582,3.81-18.969,8.686-23.253c0.043,0.225,0.089,0.436,0.131,0.63
									c0.156,0.718,0.324,1.463,0.321,2.877C111.906,402.355,111.893,407.229,111.868,416.968z"/>
								<path fill="#13C3EA" d="M328.387,409.631c-1.462,0.048-2.646,1.433-3.746,4.592c-1.837,5.277-5.713,10.44-13.344,12.242
									c0.493-1.826,0.825-3.985,0.829-5.965c0.026-14.099-10.464-23.862-17.414-35.038c0.164-0.994,3.906-6.499,3.92-11.287
									c0.013-4.457-1.923-7.388-5.814-7.329c-4.378,0.066-13.799,7.562-13.815,13.164c-0.008,2.8,0.955,5.269,2.567,7.729
									c-2.6,7.737-5.58,15.97-7.371,22.78c-0.104-0.013-0.206-0.031-0.312-0.031c-1.457-0.001-2.262,1.347-3.74,4.44
									c-3.68,7.697-6.197,12.008-16.892,12.355c2.447-5.883,4.167-14.837,4.287-23.949c0.154-11.701-4.029-28.889-18.71-29.149
									c-6.798-0.12-11.354,3.556-14.771,8.389c-0.151-3.776-3.544-7.136-8.731-7.285c-2.267-0.065-5.186,0.5-5.189,1.647
									c-0.004,1.146,1.615,1.524,1.601,6.276c-0.032,10.493-0.047,15.737-0.08,26.23c-1.357,0.056-2.159,1.37-3.581,4.287
									c-3.679,7.546-6.195,11.762-16.896,11.807c2.449-5.792,4.173-14.655,4.29-23.734c0.152-11.86-4.112-28.901-18.724-29.618
									c-6.796-0.334-11.369,3.207-14.792,7.938c-0.15-3.775-3.549-7.223-8.745-7.517c-2.273-0.129-5.198,0.354-5.202,1.502
									c-0.003,1.146,1.621,1.566,1.607,6.315c-0.03,10.294-0.046,15.44-0.076,25.734c-0.109-0.017-0.215-0.036-0.323-0.042
									c-1.624-0.092-3.233,1.313-3.911,4.688c-1.424,7.083-4.436,17.44-10.934,17.051c-3.9-0.233-5.515-4.267-5.505-7.873
									c0.03-10.821,0.045-16.231,0.074-27.053c0.011-3.934-3.393-7.432-8.762-7.793c-2.277-0.153-4.231,0.86-4.235,2.502
									c-0.003,1.149,0.645,2.181,0.637,5.301c-0.026,10.109-0.039,15.16-0.065,25.27c-1.801,4.479-4.741,8.231-9.133,7.94
									c-5.694-0.377-9.163-5.657-9.244-14.109c-0.148-15.552,9.224-33.574,26.937-32.482c1.621,0.1,3.252,0.541,4.713,0.636
									c1.625,0.105,2.118-0.849,2.125-3.633c0.012-4.263-3.074-7.088-7.463-7.381c-23.542-1.573-38.737,19.755-38.858,41.471
									c-0.065,11.781,5.921,25.344,19.321,26.184c6.168,0.387,10.746-2.265,14.007-5.831c2.43,4.092,6.809,7.152,12.496,7.493
									c8.495,0.509,14.233-4.623,18.061-11.109c-0.064,22.444-0.13,44.888-0.193,67.332c-0.007,2.459,0.475,4.451,3.718,4.621
									c3.246,0.17,8.602-0.704,8.619-6.759c0.05-17.732,0.104-35.466,0.157-53.198c1.294,1.539,3.885,2.651,7.781,2.844
									c5.677,0.28,12.009-2.208,16.399-6.765c12.051,0.527,20.516-3.317,25.645-8.118c-0.077,23.409-0.148,46.817-0.216,70.227
									c-0.007,2.461,0.475,4.444,3.718,4.561c3.238,0.115,8.59-0.857,8.607-6.922c0.051-17.762,0.106-35.523,0.16-53.285
									c1.293,1.512,3.883,2.571,7.771,2.67c5.672,0.144,11.998-2.511,16.389-7.201c8.454,0.144,15.137-1.85,20.147-4.766
									c0.698,1.338,1.673,2.703,3.034,4.033c3.217,3.143,10.998,6.951,17.81,6.92c6.647-0.03,12.006-2.567,15.912-6.096
									c10.061-0.811,16.776-4.128,21.77-8.423c3.739-3.217,7.493-9.688,7.503-13.003
									C334.218,413.735,331.146,409.54,328.387,409.631z M177.071,426.547c-7.462,0.304-12.983,1.656-15.268,4.976
									c0.038-11.785,0.07-23.571,0.105-35.356c1.809-7.928,6.048-13.434,10.752-13.205c5.516,0.268,10.202,5.873,10.156,20.933
									C182.799,409.951,180.98,421,177.071,426.547z M239.151,428.685c-7.455,0.501-12.973,1.992-15.252,5.371
									c0.041-11.805,0.073-23.61,0.111-35.415c1.808-7.988,6.036-13.622,10.737-13.53c5.509,0.108,10.191,5.588,10.145,20.695
									C244.874,411.883,243.06,423.02,239.151,428.685z M297.338,429.655c-5.317,0.059-13.461-3.995-19.363-6.822
									c0.533-1.006,0.945-2.006,1.228-2.961c1.622-0.061,3.106-1.065,3.741-3.465c2.089-7.895,3.771-13.537,6.385-19.995
									c5.656,5.885,11.638,12.726,11.607,23.128C300.924,423.668,299.128,427.492,297.338,429.655z"/>
								<path fill="#FFFFFF" d="M124.771,373.76c-14.16-2.231-26.407,7.786-31.054,20.582c-0.138,0.38,0.474,0.589,0.609,0.214
									c4.575-12.63,16.659-22.319,30.442-20.156C125.171,374.462,125.172,373.827,124.771,373.76L124.771,373.76z"/>
								<path fill="#FFFFFF" d="M119.583,389.126c6.231-0.402,6.256,9.564,5.973,13.308c-0.031,0.407,0.6,0.443,0.628,0.039
									c0.286-4.038,0.074-14.417-6.6-13.984C119.184,388.515,119.178,389.153,119.583,389.126L119.583,389.126z"/>
								<path fill="#FFFFFF" d="M150.904,375.959c4.433-1.263,7.975,1.849,9.043,6.184c0.1,0.404,0.708,0.267,0.609-0.136
									c-1.15-4.655-5.033-8.029-9.817-6.668C150.353,375.449,150.516,376.07,150.904,375.959L150.904,375.959z"/>
								<path fill="#FFFFFF" d="M126.35,426.084c1.487,2.396,3.683,4.548,6.265,5.632c5.856,2.459,9.872-4.388,11.873-8.562
									c0.172-0.358-0.371-0.715-0.545-0.354c-2.208,4.581-6.213,11.103-12.275,7.777c-1.912-1.05-3.619-2.918-4.772-4.779
									C126.676,425.442,126.127,425.725,126.35,426.084L126.35,426.084z"/>
								<path fill="#FFFFFF" d="M166.054,378.473c2.711-1.604,6.005-2.46,9.184-2.577c8.462-0.313,13.502,6.854,15.991,14.245
									c0.131,0.39,0.739,0.251,0.606-0.144c-2.462-7.274-7.025-14.036-15.163-14.709c-3.712-0.307-7.796,0.767-10.934,2.621
									C165.395,378.112,165.709,378.677,166.054,378.473L166.054,378.473z"/>
								<path fill="#FFFFFF" d="M213.668,377.613c1.173-0.171,2.441,0.046,3.559,0.442c3.348,1.187,4.371,4.8,4.454,8.011
									c0.011,0.408,0.641,0.424,0.63,0.015c-0.086-3.299-1.056-6.711-4.197-8.326c-1.375-0.708-3.102-0.979-4.61-0.762
									C213.104,377.051,213.271,377.671,213.668,377.613L213.668,377.613z"/>
								<path fill="#FFFFFF" d="M284.295,374.616c1.57-1.785,3.421-3.42,5.469-4.611c6.211-3.614,6.719,4.767,6.561,9.06
									c-0.016,0.412,0.615,0.4,0.63-0.011c0.128-3.666,0.167-11.88-5.538-10.448c-2.91,0.73-5.615,3.348-7.563,5.563
									C283.58,374.479,284.022,374.927,284.295,374.616L284.295,374.616z"/>
								<path fill="#FFFFFF" d="M190.34,428.103c2.987,0.667,6.24,0.263,9.039-0.73c6.451-2.29,9.637-8.689,10.955-15.127
									c0.081-0.396-0.524-0.586-0.607-0.188c-1.388,6.679-4.673,12.835-11.4,14.994c-2.403,0.771-5.291,1.003-7.818,0.442
									C190.11,427.406,189.938,428.013,190.34,428.103L190.34,428.103z"/>
								<path fill="#FFFFFF" d="M253.303,429.897c2.987,0.584,6.245,0.083,9.042-0.998c6.448-2.492,9.635-9.02,10.952-15.53
									c0.081-0.401-0.525-0.572-0.607-0.169c-1.37,6.778-4.673,13.042-11.398,15.409c-2.403,0.846-5.291,1.164-7.816,0.672
									C253.079,429.204,252.905,429.819,253.303,429.897L253.303,429.897z"/>
							</g>
						</g>
					</g>
				</g>
				<linearGradient id="SVGID_2_" gradientUnits="userSpaceOnUse" x1="305.998" y1="702.749" x2="305.998" y2="140.7998">
					<stop  offset="0" style="stop-color:#FFFFFF;stop-opacity:0"/>
					<stop  offset="0.8531" style="stop-color:#FFFFFF;stop-opacity:0.8531"/>
					<stop  offset="1" style="stop-color:#FFFFFF"/>
				</linearGradient>
				<path opacity="0.5" clip-path="url(#XMLID_4_)" fill="url(#SVGID_2_)" d="M351.91,686.532V140.799
					c-23.848,4.839-53.988,8.712-91.825,10.382v551.567C297.529,700.088,327.771,693.986,351.91,686.532z"/>
				<g opacity="0.5" clip-path="url(#XMLID_4_)">
					
						<radialGradient id="SVGID_3_" cx="-30.4375" cy="185.7139" r="134.3855" gradientTransform="matrix(1 0 0 2.054 0 -195.7444)" gradientUnits="userSpaceOnUse">
						<stop  offset="0" style="stop-color:#13C3EA"/>
						<stop  offset="1" style="stop-color:#13C3EA;stop-opacity:0"/>
					</radialGradient>
					<path fill="url(#SVGID_3_)" d="M59.125,135.875c-43.777-11.866-56.388-26.484-58.4-30.035C0.302,108.113,0,110.296,0,112.258
						c0,136.398,0,526.93,0,526.93s15.664,20.438,59.125,38.399V135.875z"/>
					<radialGradient id="SVGID_4_" cx="503.126" cy="567.624" r="204.29" gradientUnits="userSpaceOnUse">
						<stop  offset="0" style="stop-color:#13C3EA"/>
						<stop  offset="0.9928" style="stop-color:#13C3EA;stop-opacity:0.0072"/>
						<stop  offset="1" style="stop-color:#13C3EA;stop-opacity:0"/>
					</radialGradient>
					<path fill="url(#SVGID_4_)" d="M436.216,105.558c-1.876,2.731-17.313,18.32-64.673,30.714V679.69
						c48.199-18.803,65.166-41.559,65.166-41.559s0-390.643,0-527.322C436.709,109.18,436.513,107.409,436.216,105.558z"/>
				</g>
			</g>
			<g>
				<linearGradient id="SVGID_5_" gradientUnits="userSpaceOnUse" x1="0.6841" y1="97.7285" x2="436.2314" y2="97.7285">
					<stop  offset="0" style="stop-color:#0C6F85"/>
					<stop  offset="0.195" style="stop-color:#0E8BA7"/>
					<stop  offset="0.5307" style="stop-color:#13C3EA"/>
					<stop  offset="0.6307" style="stop-color:#12B6DA"/>
					<stop  offset="0.8256" style="stop-color:#0F93B0"/>
					<stop  offset="1" style="stop-color:#0C6F85"/>
				</linearGradient>
				<path fill="url(#SVGID_5_)" d="M218.354,152.087c172.539,0,214.772-41.987,217.877-46.549
					c-3.154-19.376-21.475-49.336-29.16-61.257l-1.228-0.911H30.865c0,0-25.664,38.471-30.181,62.404
					C4.004,111.78,39.406,152.087,218.354,152.087z"/>
			</g>
			<linearGradient id="SVGID_6_" gradientUnits="userSpaceOnUse" x1="23.521" y1="42.9199" x2="413.1875" y2="42.9199">
				<stop  offset="0" style="stop-color:#12AED1"/>
				<stop  offset="0.02" style="stop-color:#12B2D6"/>
				<stop  offset="0.096" style="stop-color:#13BCE1"/>
				<stop  offset="0.2029" style="stop-color:#13C1E8"/>
				<stop  offset="0.5" style="stop-color:#13C3EA"/>
				<stop  offset="0.6188" style="stop-color:#12B8DD"/>
				<stop  offset="0.7787" style="stop-color:#12B0D4"/>
				<stop  offset="1" style="stop-color:#12AED1"/>
			</linearGradient>
			<path fill="url(#SVGID_6_)" d="M413.188,42.917c0,23.702-87.232,42.922-194.833,42.922c-107.6,0-194.833-19.22-194.833-42.922
				C23.521,19.22,110.754,0,218.354,0C325.955,0,413.188,19.22,413.188,42.917z"/>
			<path fill="#868686" d="M388.721,51.584c6.152-2.731,10.463-5.463,12.777-8.043c-12.284-13.662-80.091-31.564-183.873-31.564
				c-103.777,0-171.584,17.902-183.873,31.564c2.324,2.581,6.63,5.312,12.782,8.043c26.408-11.735,86.916-23.516,171.091-23.516
				C301.81,28.068,362.313,39.849,388.721,51.584z"/>
			<path fill="#B3B3B3" d="M388.721,51.584c-26.408-11.735-86.911-23.516-171.096-23.516c-84.175,0-144.683,11.781-171.091,23.516
				C72.942,63.33,133.45,75.105,217.625,75.105C301.81,75.105,362.313,63.33,388.721,51.584z"/>
			<path fill="#13C3EA" d="M30.402,559.757c0,12.605-4.145,22.807-9.255,22.807c-5.121,0-9.266-10.201-9.266-22.807
				c0-12.596,4.145-22.807,9.266-22.807C26.258,536.95,30.402,547.161,30.402,559.757z"/>
			<g>
				<defs>
					<path id="SVGID_7_" d="M388.721,51.584c-26.408-11.735-86.911-23.516-171.096-23.516c-84.175,0-144.683,11.781-171.091,23.516
						C72.942,63.33,133.45,75.105,217.625,75.105C301.81,75.105,362.313,63.33,388.721,51.584z"/>
				</defs>
				<clipPath id="SVGID_8_">
					<use xlink:href="#SVGID_7_"  overflow="visible"/>
				</clipPath>
				<g clip-path="url(#SVGID_8_)">
					<path fill="none" stroke="#565656" stroke-miterlimit="10" d="M293.107,91.997c-32.877,0-92.122-11.177-92.122-24.975
						c0-13.788,59.245-24.97,92.122-24.97c32.878,0,59.527,11.182,59.527,24.97C352.635,80.82,325.985,91.997,293.107,91.997z"/>
					<path fill="#868686" d="M149.295,44.678c29.713,0,83.269,10.106,83.269,22.576c0,12.465-53.556,22.575-83.269,22.575
						c-29.718,0-53.813-10.11-53.813-22.575C95.482,54.784,119.577,44.678,149.295,44.678z"/>
					<g>
						<path fill="#808080" d="M146.137,52.792c19.074,0,34.718,7.047,36.368,16.036c0.101-0.523,0.171-1.046,0.171-1.574
							c0-9.729-16.358-17.611-36.539-17.611c-20.181,0-36.54,7.882-36.54,17.611c0,0.528,0.071,1.051,0.171,1.574
							C111.423,59.839,127.062,52.792,146.137,52.792z"/>
						<path fill="#B3B3B3" d="M146.137,84.859c19.074,0,34.718-7.047,36.368-16.031c-1.65-8.989-17.293-16.036-36.368-16.036
							c-19.075,0-34.713,7.047-36.368,16.036C111.423,77.812,127.062,84.859,146.137,84.859z"/>
					</g>
					<path fill="none" stroke="#565656" stroke-miterlimit="10" d="M306.448,49.643c14.426,0,26.116,7.882,26.116,17.611
						c0,9.723-11.69,17.605-26.116,17.605c-14.427,0-26.127-7.882-26.127-17.605C280.321,57.525,292.021,49.643,306.448,49.643z"/>
					<path fill="#C6C6C5" d="M215.412,64.1c4.145,0,7.515,1.408,7.515,3.154c0,1.74-3.37,3.149-7.515,3.149
						c-4.155,0-7.516-1.409-7.516-3.149C207.896,65.508,211.257,64.1,215.412,64.1z"/>
				</g>
			</g>
			<g>
				<g>
					<path opacity="0.5" fill="#13C3EA" d="M365.652,231.624c-1.423,2.128-7.882,6.509-13.808,1.73
						c-7.655-6.172,0.327-24.869,0.327-24.869s-15.281,25.105-0.921,32.173c9.11,4.482,15.03-2.757,15.645-7.928
						c0.12-0.996,0.286-2.59,0.05-4.306C366.684,229.692,366.206,230.794,365.652,231.624z"/>
					<path fill="#3BE3FF" d="M359.868,220.895c0.689,0.171,1.308,0.382,1.876,0.624c-0.9-1.021-1.645-1.826-1.298-2.46
						c0.8-1.499,5.201,2.148,5.75,5.85c0.05,0.342,0.07,0.679,0.08,1.011c0.348,0.83,0.554,1.68,0.669,2.505
						c0.739-3.622-0.393-8.632-7.188-12.817c-4.985-3.068-7.586-7.123-7.586-7.123S349.018,218.204,359.868,220.895z"/>
					<path fill="#13C3EA" d="M351.845,233.354c5.926,4.778,12.385,0.397,13.808-1.73c0.554-0.83,1.031-1.932,1.293-3.199
						c-0.115-0.825-0.321-1.675-0.669-2.505c0.08,4.094-3.018,7.027-4.486,5.749c-1.59-1.378,2.328-2.5,2.213-5.83
						c-0.061-1.766-1.253-3.179-2.259-4.321c-0.568-0.242-1.187-0.453-1.876-0.624c-10.851-2.691-7.696-12.409-7.696-12.409
						S344.189,227.183,351.845,233.354z"/>
					<path fill="#FFFFFF" d="M366.196,224.909c-0.549-3.702-4.95-7.349-5.75-5.85c-0.347,0.634,0.397,1.438,1.298,2.46
						c2.444,1.036,3.803,2.666,4.532,4.401C366.267,225.588,366.246,225.251,366.196,224.909z"/>
					<path fill="#FFFFFF" d="M361.744,221.519c1.006,1.142,2.198,2.555,2.259,4.321c0.115,3.33-3.803,4.452-2.213,5.83
						c1.469,1.278,4.566-1.655,4.486-5.749C365.547,224.185,364.188,222.555,361.744,221.519z"/>
				</g>
				<path fill="#FFFFFF" d="M361.11,232.102c0.287,0.619-0.186,1.449-1.051,1.856c-0.871,0.402-1.812,0.231-2.098-0.382
					c-0.287-0.619,0.181-1.449,1.056-1.851C359.888,231.317,360.823,231.483,361.11,232.102z"/>
			</g>
			<g>
				<g>
					<path opacity="0.5" fill="#13C3EA" d="M334.557,608.142c-0.905,2.273-6.071,7.646-12.556,4.356
						c-8.38-4.245-4.638-23.29-4.638-23.29s-9.291,26.484,5.533,30.231c9.401,2.384,13.496-5.559,13.043-10.513
						c-0.085-0.946-0.246-2.475-0.81-4.029C335.14,606.135,334.908,607.257,334.557,608.142z"/>
					<path fill="#3BE3FF" d="M327.021,599.269c0.679,0.02,1.298,0.101,1.876,0.211c-1.041-0.774-1.896-1.378-1.7-2.042
						c0.452-1.55,5.286,0.976,6.534,4.326c0.115,0.312,0.201,0.624,0.271,0.931c0.493,0.704,0.86,1.453,1.127,2.203
						c-0.035-3.526-2.078-7.983-9.266-10.538c-5.262-1.876-8.501-5.151-8.501-5.151S316.347,598.906,327.021,599.269z"/>
					<path fill="#13C3EA" d="M322.001,612.498c6.484,3.29,11.65-2.083,12.556-4.356c0.352-0.885,0.583-2.007,0.573-3.244
						c-0.267-0.75-0.634-1.499-1.127-2.203c0.896,3.803-1.418,7.158-3.048,6.262c-1.761-0.976,1.685-2.807,0.915-5.895
						c-0.407-1.63-1.806-2.711-2.973-3.582c-0.578-0.11-1.197-0.191-1.876-0.211c-10.675-0.362-9.658-10.061-9.658-10.061
						S313.621,608.253,322.001,612.498z"/>
					<path fill="#FFFFFF" d="M333.731,601.764c-1.248-3.351-6.082-5.876-6.534-4.326c-0.196,0.664,0.659,1.268,1.7,2.042
						c2.49,0.483,4.079,1.73,5.105,3.215C333.933,602.388,333.847,602.075,333.731,601.764z"/>
					<path fill="#FFFFFF" d="M328.897,599.479c1.167,0.871,2.565,1.952,2.973,3.582c0.77,3.088-2.676,4.919-0.915,5.895
						c1.63,0.896,3.943-2.459,3.048-6.262C332.977,601.21,331.388,599.963,328.897,599.479z"/>
				</g>
				<path fill="#FFFFFF" d="M330.411,609.489c0.388,0.523,0.116,1.389-0.618,1.942s-1.646,0.578-2.037,0.061
					c-0.388-0.519-0.111-1.389,0.618-1.942C329.108,609.002,330.019,608.977,330.411,609.489z"/>
			</g>
			<g>
				<path opacity="0.3" fill="#58069A" d="M22.893,241.951c-5.357,3.737-10.634-0.397-11.726-2.304
					c-0.422-0.745-0.77-1.715-0.916-2.822c-0.247-1.861,0.106-4.104,1.69-6.283c-4.94,1.725-5.634,6.494-5.75,7.953
					c-0.423,5.377,4.618,10.694,11.227,10.04c5.211-0.513,7.279-5.13,7.968-9.864C24.854,239.999,24.054,241.141,22.893,241.951z"/>
				<path fill="#ECECEC" d="M24.09,220.618c0,0-2.465,3.325-6.917,5.659c-2.479,1.293-4.145,2.762-5.231,4.266
					c0.317-0.085,0.649-0.156,1.006-0.206c0.105-0.02,0.211-0.025,0.317-0.036c1.308-1.252,2.762-1.876,3.108-1.111
					c0.136,0.302,0.005,0.624-0.271,0.981c8.079-0.709,7.671-8.537,7.671-8.537s2.742,9.326,1.615,17.038
					C28.059,232.057,24.09,220.618,24.09,220.618z"/>
				<path fill="#13C3EA" d="M23.772,221.634c0,0,0.408,7.827-7.671,8.537c-0.241,0.317-0.593,0.664-0.986,1.051
					c-0.925,0.916-2.037,2.057-2.198,3.562c-0.292,2.852,3.003,4.044,1.56,5.13c-1.333,1.006-3.818-1.69-3.506-5.191
					c0.025-0.282,0.061-0.568,0.131-0.865c0.292-1.338,1.188-2.626,2.163-3.557c-0.105,0.01-0.211,0.016-0.317,0.036
					c-0.357,0.05-0.689,0.121-1.006,0.206c-1.584,2.178-1.937,4.421-1.69,6.283c0.146,1.106,0.493,2.077,0.916,2.822
					c1.092,1.907,6.368,6.042,11.726,2.304c1.162-0.81,1.961-1.952,2.495-3.28C26.514,230.96,23.772,221.634,23.772,221.634z"/>
				<path fill="#FFFDF6" d="M16.102,230.17c0.277-0.357,0.408-0.679,0.271-0.981c-0.347-0.765-1.801-0.141-3.108,1.111
					c0.433-0.05,0.885-0.08,1.378-0.07C15.161,230.235,15.639,230.21,16.102,230.17z"/>
				<path fill="#ECECEC" d="M11.102,233.857c-0.07,0.297-0.105,0.583-0.131,0.865c-0.312,3.501,2.173,6.197,3.506,5.191
					c1.443-1.086-1.851-2.279-1.56-5.13c0.161-1.504,1.273-2.646,2.198-3.562c0.393-0.388,0.745-0.734,0.986-1.051
					c-0.463,0.04-0.94,0.065-1.458,0.06c-0.493-0.01-0.946,0.021-1.378,0.07C12.289,231.231,11.394,232.52,11.102,233.857z"/>
				<path fill="#EC694A" d="M17.601,241.594c-0.206,0.538-0.961,0.745-1.685,0.463c-0.729-0.277-1.152-0.936-0.94-1.474
					c0.201-0.538,0.96-0.744,1.68-0.468C17.384,240.396,17.812,241.061,17.601,241.594z"/>
				<path fill="#ECECEC" d="M15.035,240.376c-0.287,0.503,0.07,1.248,0.79,1.64c0.724,0.403,1.534,0.312,1.821-0.196
					c0.282-0.508-0.076-1.253-0.795-1.65C16.132,239.773,15.317,239.863,15.035,240.376z"/>
			</g>
			<g>
				<path opacity="0.3" fill="#58069A" d="M33.083,278.535c-7.52,5.251-14.924-0.553-16.458-3.229
					c-0.594-1.046-1.082-2.414-1.288-3.963c-0.342-2.616,0.151-5.765,2.375-8.823c-6.937,2.424-7.908,9.114-8.074,11.167
					c-0.588,7.545,6.484,15.01,15.765,14.095c7.314-0.719,10.216-7.198,11.187-13.848C35.84,275.799,34.718,277.398,33.083,278.535z
					"/>
				<path fill="#ECECEC" d="M34.769,248.591c0,0-3.461,4.663-9.713,7.942c-3.481,1.816-5.82,3.878-7.344,5.986
					c0.448-0.121,0.91-0.222,1.414-0.292c0.146-0.025,0.296-0.03,0.442-0.045c1.836-1.766,3.878-2.636,4.366-1.564
					c0.191,0.428,0.005,0.875-0.382,1.378c11.343-0.996,10.77-11.982,10.77-11.982s3.848,13.088,2.269,23.918
					C40.337,264.642,34.769,248.591,34.769,248.591z"/>
				<path fill="#13C3EA" d="M34.321,250.014c0,0,0.574,10.986-10.77,11.982c-0.337,0.448-0.83,0.936-1.383,1.479
					c-1.298,1.288-2.862,2.887-3.088,5c-0.408,4.004,4.22,5.674,2.193,7.203c-1.871,1.408-5.362-2.369-4.924-7.289
					c0.035-0.397,0.085-0.8,0.186-1.212c0.408-1.881,1.665-3.682,3.033-4.995c-0.146,0.015-0.297,0.02-0.442,0.045
					c-0.503,0.07-0.966,0.171-1.414,0.292c-2.224,3.058-2.716,6.207-2.375,8.823c0.207,1.549,0.694,2.917,1.288,3.963
					c1.534,2.676,8.938,8.481,16.458,3.229c1.635-1.137,2.756-2.736,3.506-4.603C38.169,263.103,34.321,250.014,34.321,250.014z"/>
				<path fill="#FFFDF6" d="M23.551,261.996c0.387-0.503,0.574-0.951,0.382-1.378c-0.488-1.071-2.53-0.201-4.366,1.564
					c0.609-0.07,1.243-0.116,1.937-0.101C22.233,262.097,22.902,262.057,23.551,261.996z"/>
				<path fill="#ECECEC" d="M16.534,267.177c-0.101,0.413-0.151,0.815-0.186,1.212c-0.438,4.919,3.053,8.697,4.924,7.289
					c2.027-1.529-2.601-3.199-2.193-7.203c0.226-2.113,1.791-3.712,3.088-5c0.553-0.543,1.046-1.031,1.383-1.479
					c-0.649,0.061-1.318,0.101-2.047,0.085c-0.694-0.015-1.328,0.03-1.937,0.101C18.199,263.495,16.942,265.296,16.534,267.177z"/>
				<path fill="#EC694A" d="M25.659,278.042c-0.292,0.75-1.354,1.041-2.369,0.644c-1.021-0.392-1.615-1.318-1.318-2.072
					c0.282-0.754,1.348-1.046,2.359-0.654C25.352,276.352,25.956,277.283,25.659,278.042z"/>
				<path fill="#ECECEC" d="M22.058,276.322c-0.403,0.714,0.095,1.75,1.106,2.313c1.016,0.563,2.153,0.433,2.555-0.281
					c0.397-0.715-0.105-1.756-1.117-2.314C23.597,275.477,22.45,275.603,22.058,276.322z"/>
			</g>
			<g>
				<g>
					<path opacity="0.5" fill="#13C3EA" d="M345.547,162.026c0-5.956,0.649-11.227,1.646-14.527
						c-2.133,0.538-3.828,8.411-3.828,18.058c0,10.01,1.82,18.119,4.06,18.119c0.91,0,1.745-1.338,2.424-3.592
						c-0.075,0.03-0.155,0.055-0.236,0.055C347.368,180.14,345.547,172.026,345.547,162.026z"/>
					<path fill="#3BE3FF" d="M353.666,162.026c0-10.01-1.812-18.118-4.055-18.118c-0.905,0-1.74,1.338-2.419,3.591
						c0.075-0.03,0.155-0.055,0.231-0.055c2.238,0,4.059,8.113,4.059,18.113c0,5.966-0.648,11.228-1.635,14.527
						C351.98,179.547,353.666,171.68,353.666,162.026z"/>
					<path fill="#13C3EA" d="M347.424,147.444c-0.076,0-0.156,0.025-0.231,0.055c-0.996,3.3-1.646,8.571-1.646,14.527
						c0,10,1.821,18.114,4.064,18.114c0.081,0,0.161-0.025,0.236-0.055c0.986-3.3,1.635-8.562,1.635-14.527
						C351.482,155.558,349.662,147.444,347.424,147.444z"/>
				</g>
				<path fill="#FFFFFF" d="M351.347,147.827c0.468,1.569,0.448,2.962-0.055,3.119c-0.504,0.156-1.298-0.996-1.776-2.57
					c-0.473-1.569-0.447-2.968,0.061-3.119C350.079,145.105,350.869,146.252,351.347,147.827z"/>
			</g>
		</g>
		<linearGradient id="SVGID_9_" gradientUnits="userSpaceOnUse" x1="176.5864" y1="703.9561" x2="176.5864" y2="149.9951">
			<stop  offset="0" style="stop-color:#FFFFFF;stop-opacity:0"/>
			<stop  offset="0.8531" style="stop-color:#FFFFFF;stop-opacity:0.8531"/>
			<stop  offset="1" style="stop-color:#FFFFFF"/>
		</linearGradient>
		<path opacity="0.2" fill="url(#SVGID_9_)" d="M152.545,150.015v550.491c14.729,1.745,30.704,2.958,48.083,3.45
			c0-41.951,0-502.241,0-552c-17.495-0.271-33.44-0.966-48.078-1.961C152.55,150.004,152.545,150.004,152.545,150.015z"/>
		<linearGradient id="SVGID_10_" gradientUnits="userSpaceOnUse" x1="95.9653" y1="695.8525" x2="95.9653" y2="138.5562">
			<stop  offset="0" style="stop-color:#13C3EA;stop-opacity:0"/>
			<stop  offset="0.8756" style="stop-color:#13C3EA;stop-opacity:0.8756"/>
			<stop  offset="1" style="stop-color:#13C3EA"/>
		</linearGradient>
		<path opacity="0.2" fill="url(#SVGID_10_)" d="M69.789,138.556v543.147c14.648,5.332,31.972,10.267,52.354,14.149
			c0-120.749,0-465.169,0-548.584C101.463,144.934,84.195,141.916,69.789,138.556z"/>
	</g>
</g>
<g id="Capa_2">
</g>
</svg>
