<?xml version="1.0" encoding="utf-8"?>
<!-- Generator: Adobe Illustrator 16.0.0, SVG Export Plug-In . SVG Version: 6.00 Build 0)  -->
<!DOCTYPE svg PUBLIC "-//W3C//DTD SVG 1.1//EN" "http://www.w3.org/Graphics/SVG/1.1/DTD/svg11.dtd">
<svg version="1.1" id="Capa_1" xmlns="http://www.w3.org/2000/svg" xmlns:xlink="http://www.w3.org/1999/xlink" x="0px" y="0px"
	 width="347.539px" height="584.62px" viewBox="0 0 347.539 584.62" enable-background="new 0 0 347.539 584.62"
	 xml:space="preserve">
<g>
	<g>
		<linearGradient id="SVGID_1_" gradientUnits="userSpaceOnUse" x1="0" y1="534.0498" x2="347.5386" y2="534.0498">
			<stop  offset="0" style="stop-color:#696969"/>
			<stop  offset="0.5323" style="stop-color:#B3B3B3"/>
			<stop  offset="1" style="stop-color:#5C5C5C"/>
		</linearGradient>
		<path fill="url(#SVGID_1_)" d="M173.773,483.479C30.735,483.479,0,509.267,0,509.267s16.373,33.045,16.837,33.569
			c6.701,7.642,70.158,41.784,156.704,41.784c85.025,0,150.035-30.684,156.632-41.212l17.365-35.871
			C347.539,507.537,300.43,483.479,173.773,483.479z"/>
		<g>
			<defs>
				<path id="XMLID_2_" d="M24.563,34.515c0,0-24.563,36.816-24.563,54.822c0,108.547,0,419.337,0,419.337
					s39.618,51.744,173.769,51.744c134.675,0,173.77-52.585,173.77-52.585s0-310.878,0-419.649
					c0-18.582-26.293-57.052-26.293-57.052L24.563,34.515z"/>
			</defs>
			<linearGradient id="XMLID_3_" gradientUnits="userSpaceOnUse" x1="0" y1="295.7744" x2="347.5386" y2="295.7744">
				<stop  offset="0" style="stop-color:#002766"/>
				<stop  offset="0.1434" style="stop-color:#002E78"/>
				<stop  offset="0.43" style="stop-color:#0040A7"/>
				<stop  offset="0.5102" style="stop-color:#0046B5"/>
				<stop  offset="0.6479" style="stop-color:#003FA3"/>
				<stop  offset="0.923" style="stop-color:#002D74"/>
				<stop  offset="1" style="stop-color:#002766"/>
			</linearGradient>
			<use xlink:href="#XMLID_2_"  overflow="visible" fill="url(#XMLID_3_)"/>
			<clipPath id="XMLID_4_">
				<use xlink:href="#XMLID_2_"  overflow="visible"/>
			</clipPath>
			<g clip-path="url(#XMLID_4_)">
				<g>
					<g>
						<path fill="#002F8E" d="M488.714,28.533c-95.381,78.048-198.013,150.744-315.624,190.956
							c-107.848,36.874-220.996,41.024-332.094,16.777c10.812,78.178,20.881,156.453,30.319,234.808
							c248.85,48.506,466.779-84.787,648.333-240.966C509.114,162.951,498.789,95.761,488.714,28.533z"/>
						<path fill="#FF7600" d="M485.778,16.921c-95.081,77.471-197.387,149.527-314.572,189.137
							c-107.993,36.503-221.173,40.097-332.231,15.738c0.813,5.789,1.217,8.682,2.022,14.47
							c111.098,24.247,224.246,20.097,332.094-16.777c117.611-40.212,220.243-112.908,315.624-190.956
							C487.538,23.892,486.951,21.57,485.778,16.921z"/>
						<path fill="#FF7600" d="M-128.685,471.074c1.119,5.864,1.679,8.79,2.789,14.65c248.555,47.587,466.624-87.208,647.487-243.295
							c-0.778-4.926-1.166-7.392-1.942-12.322C338.094,386.287,120.165,519.58-128.685,471.074z"/>
						
							<linearGradient id="SVGID_2_" gradientUnits="userSpaceOnUse" x1="173.4233" y1="452.543" x2="173.4233" y2="159.5981" gradientTransform="matrix(0.9901 -0.14 0.14 0.9901 -25.0268 29.7306)">
							<stop  offset="0" style="stop-color:#001D4C;stop-opacity:0"/>
							<stop  offset="1" style="stop-color:#001D4C"/>
						</linearGradient>
						<path fill="url(#SVGID_2_)" d="M502.004,116.386c-52.597,91.717-142.706,196.029-254.97,202.582
							c-86.815,5.067-175.087-0.364-262.68,1.777c-42.896,1.049-89.303,2.718-129.314,20.061
							c5.615,43.399,11.041,86.821,16.274,130.269c248.85,48.506,466.779-84.787,648.333-240.966
							C513.695,192.212,507.82,154.303,502.004,116.386z"/>
					</g>
					<g>
						<path fill="#002868" d="M217.701,204.383c0.22,2.166,0.242,4.47-0.004,7.422c-0.106,0.152-0.158,0.228-0.265,0.379
							c-0.266,0.375-0.825,0.814-1.126,0.875c-2.703,0.548-5.304-3.204-20.361-0.407c-22.31,4.143-64.13,12.143-67.166,16.561
							c-5.417,7.883,5.771,125.041-42.973,122.177c-14.292-0.84-25.343-15.951-30.164-28.714
							c-3.546,3.953-11.28,12.916-21.753,11.599c-16.336-2.055-25.023-20.906-26.796-35.495
							c-3.328-27.387,26.895-77.577,26.895-77.577c-0.816-1.396-54.086,21.797-50.437,49.975c0.215,1.657,0.457,3.03,0.775,3.728
							c1.572,3.444,10.86-1.797,12.831-6.711c1.062-2.647,7.384-3.083,5.952,2.965c-2.196,9.277-7.255,23.447-19.491,20.498
							c-11.533-2.78-18.448-15.11-20.095-26.398c-6.175-42.329,46.861-54.743,78.876-51.602c2.507,0.246,5.302,3.113,4.543,4.333
							c-15.093,24.252-27.689,45.987-27.5,75.473c0.061,9.564,3.712,21.375,12.996,26.022c0.251,0.029,0.377,0.045,0.628,0.074
							c9.071,1.038,17.734-7.23,16.824-11.639c-3.907-18.926-11.387-86.924,24.035-84.593c10.161,0.668,17.008,11.188,17.814,20.345
							c2.056,23.351-4.558,48.079-22.534,65.902c0.425,9.411,10.153,19.894,14.841,20.619c43.225,6.69,40.253-77.799,36.164-100.624
							c-9.956-0.958-15.108-8.121-15.751-13.623c-1.211-10.369,5.214-15.928,9.93-15.063c6.282,1.152,10.34,15.881,11.114,16.165
							c5.431,1.992,46.302-22.01,70.46-27.011C206.078,187.945,216.563,193.184,217.701,204.383z M65.141,296.209
							c5.546-12.334,25.735-45.775,13.491-57.837C59.658,231.763,62.073,286.033,65.141,296.209z M118.307,218.611
							c0.574,0.02-1.058-11.147-3.626-9.953c-2.186,1.017-2.184,2.318-1.843,5.228C113.179,216.795,115.971,218.533,118.307,218.611
							z"/>
						<path fill="#002868" d="M181.21,311.815c-0.435,3.861-3.896,8.885-6.41,12.49c-4.366,6.263-11.592,12.923-22.086,13.92
							c-13.804,1.312-22.371-11.721-23.828-23.792c-1.996-16.534,5.981-41.554,25.022-43.786
							c9.358-1.097,15.779,5.184,16.503,11.658c1.5,13.418-9.075,25.992-22.475,27.237c-4.663,0.434-9.946-2.065-9.946-2.065
							c-0.371,0.127-0.678,5.734-0.344,8.554c1.031,8.688,7.636,16.776,16.352,15.915c6.478-0.641,13.571-6.447,16.925-9.733
							c8.071-7.908,7.703-11.204,8.812-11.363c0.227-0.033,0.67-0.094,0.919,0.104C180.905,311.154,181.231,311.637,181.21,311.815z
							 M138.463,303.892c0.075,0.158,1.377,0.143,2.942,0.025c8.94-0.67,15.988-11.603,15.376-16.747
							c-0.25-2.103-1.48-2.925-3.482-2.733c-2.901,0.276-7.196,2.838-10.467,8.713C141.135,296.196,137.961,302.83,138.463,303.892z
							"/>
						<path fill="#002868" d="M258.714,271.028c-0.173-1.326-0.68-2-1.195-1.827c-13.358,4.493-16.342,13.434-17.65,16.849
							c-11.955,31.198-14.685,93.042-26.054,104.049c-0.445,0.431-1.661-0.602-1.616-0.652
							c11.622-13.07,10.45-117.783,22.25-131.003c0.323-0.362,10.806,6.344,10.876,6.357c0.143,0.025,5.403-5.328,10.552-6.748
							c7.543-2.08,10.765,2.045,11.641,8.666c1.075,8.131-3.19,23.767-2.95,24.063c1.346,1.657,12.811,2.403,12.887,2.969
							c0.101,0.751-0.216,1.249-0.772,1.422c-1.476,0.46-11.049-2.978-13.381-0.878c-3.291,2.963-9.905,16.602-17.489,18.574
							c-6.48,1.686-9.536-1.34-10-4.966c-1.271-9.923,11.012-13.762,16.18-15.161c1.296-0.351,3.274-0.45,3.718-0.82
							C257.779,290.193,259.209,274.819,258.714,271.028z M243.677,306.728c3.139-0.806,10.34-10.209,10.34-10.209
							c-0.453-0.496-12.782,6.116-12.389,9.159C241.751,306.629,242.38,307.061,243.677,306.728z"/>
						<path fill="#002868" d="M297.917,247.115c0.076,0.563-0.158,1.106-0.135,1.815c0.174,5.204,6.544,14.574,8.467,24.882
							c2.067,11.082-7.104,22.74-18.061,26.497c-10.97,3.761-17.611-3.258-18.418-9.301c-0.504-3.778,2.745-7.441,4.348-9.186
							c4.886-5.318,10.485-23.79,11.398-32.497c0.182-1.73,0.801-8.312,2.455-8.859c-0.072,0.024-0.109,0.035-0.182,0.06
							c0.075,0.563,7.438,1.409,9.742,5.15C297.718,245.978,297.841,246.552,297.917,247.115z M296.843,278.713
							c-0.799-5.809-9.656-21.291-9.656-21.291c-0.652-0.014-10.396,22.787-10.396,22.787c0.185,0.166,7.967-3.721,7.967-3.721
							c0.002-0.018,0.186-0.06,0.395,0.068c0.208,0.127,0.451,0.447,0.527,1.006c0.205,1.497-12.357,5.49-11.576,11.34
							c0.378,2.83,5.737,6.882,11.841,4.877C291.676,291.898,297.771,285.46,296.843,278.713z"/>
						<path fill="#002868" d="M234.927,287.851c-0.782-0.078-1.063-0.279-1.063-0.279s-3.316,8.383-16.553,15.421
							c5.66-10.028,8.51-21.466,7.146-32.957c-1.276-10.76-9.825-19.318-21.277-17.01c-2.683,0.541-5.203,1.197-7.104,2.318
							c3.973-13.259,8.271-26.628,9.971-40.419c-2.132-0.275-4.326-0.415-6.68-0.051c-3.747,0.579-7.463,1.3-11.153,2.101
							c-2.885,31.075-18.983,64.881-15.506,95.755c1.439,12.781,7.723,15.262,15.759,13.979
							c12.049-1.924,15.567-8.805,21.162-13.364c11.732-3.387,24.895-15.55,25.928-24.583
							C235.581,288.567,235.208,288.05,234.927,287.851z M188.829,319.185c-2.763,0.441-4.146-0.42-4.62-2.213
							c-0.354-2.879-0.584-6.844,0.033-12.272c2.268,3.924,7.966,10.77,14.231,9.661
							C194.972,317.111,191.581,318.745,188.829,319.185z M205.96,306.592c-8.89,0.622-12.694-4.515-13.434-11.469
							c-1.147-10.796,3.45-26.477,15.314-29.115c2.403-0.534,5.688,0.511,6.855,11.962
							C215.722,288.022,212.289,298.464,205.96,306.592z"/>
						<path fill="#002868" d="M322.085,232.941c2.764-1.069,5.057-4.001,5.979-7.25c0.25-0.882,0.342-1.706,0.211-2.634
							c-0.446-3.158-3.213-4.81-6.706-3.462c-3.501,1.351-5.688,5.112-5.138,9.029C316.875,231.793,318.583,234.296,322.085,232.941
							z"/>
						<path fill="#002868" d="M319.689,282.146c-2.777,1.067-3.551-0.772-3.805-3.455c-0.9-9.51,2.723-19.724,6.037-29.006
							c1.057-2.177,1.559-4.14,1.348-5.625c-1.058-7.436-10.688-5.552-10.264-6.692c-2.328,13.843-7.749,27.138-6.111,41.116
							c0.795,6.782,5.057,12.521,12.297,9.743c2.775-1.065,5.14-3.002,7.25-5.511c0.414-3.203,1.062-6.366,1.922-9.458
							C325.833,277.266,322.791,280.955,319.689,282.146z"/>
						<g>
							<path fill="#002868" d="M244.724,385.065c-12.301,0.84-24.271,1.056-36.594,0.652c-0.384,1.937-0.665,3.66-0.842,5.152
								c-0.271,2.292-0.425,4.145-0.462,5.524c2.75-3.018,3.998-3.959,4.841-4.44c0.218-0.126,0.327-0.188,0.545-0.314
								c0.24-0.049,0.362-0.072,0.603-0.122c0.987-0.204,2.159-0.063,3.447,0.549c0.473,0.225,0.949,0.548,1.482,1.026
								c0.446-0.412,0.885-0.77,1.327-1.065c2.849-1.903,5.78-2.96,8.714-3.147c4.412-0.282,8.641,1.478,11.312,4.756
								c1.3,1.595,2.369,3.379,3.227,5.321c0.103-0.019,0.204-0.028,0.307-0.046c0.005-0.043,0.009-0.088,0.015-0.133
								C243.2,394.256,243.958,389.639,244.724,385.065z"/>
							<path fill="#002868" d="M294.213,374.93c-8.055,2.594-16.182,4.704-24.328,6.376c-1.076,4.311-2.077,8.575-2.993,12.775
								c6.549-1.626,13.088-3.546,19.588-5.744c0.496-1.21,1.028-2.414,1.606-3.605C289.762,381.278,291.818,377.992,294.213,374.93
								z"/>
							<path fill="#002868" d="M148.26,397.416c13.149,1.983,26.109,3.397,39.377,4.288c-1.108-0.858-2.067-1.803-2.856-2.827
								c-1.661-2.027-2.944-4.658-3.729-7.725c-0.04-0.202-0.059-0.303-0.099-0.505c-0.126-1.048-0.199-2.984,0.517-7.771
								c-5.279-0.83-10.513-1.818-15.699-2.936c-0.132,0.099-0.271,0.186-0.406,0.284
								C159.088,384.806,153.326,390.646,148.26,397.416z"/>
							<path fill="#002868" d="M123.077,392.162c0.75,0.175,1.522,0.366,2.286,0.548c1.355-2.589,2.811-5.129,4.373-7.611
								c2.742-4.356,5.788-8.428,9.094-12.236c-1.552-0.477-3.105-0.961-4.636-1.471c-2.139-0.712-4.301-1.443-6.422-2.152
								c-2.232-0.746-4.489-1.484-6.71-2.242c-8.712-2.974-17.357-5.97-25.935-8.858c-8.577-2.889-17.176-5.695-25.747-8.111
								c-8.575-2.417-17.255-4.488-25.858-5.808c-8.598-1.319-17.329-1.797-25.497-1.087c-8.18,0.711-15.889,2.718-22.308,5.738
								c-6.425,3.023-11.652,6.969-15.841,10.947c-4.208,3.997-7.463,8.167-10.019,12.021c-5.121,7.722-8.057,14.438-9.868,18.926
								c-0.906,2.244-1.586,4.018-2.014,5.191c-0.292,0.8-0.486,1.317-0.583,1.58c10.608-2.776,15.912-4.293,26.511-7.576
								c7.333,11.747,14.684,23.483,22.087,35.188c0.081,0.043,0.12,0.064,0.2,0.107c0,0,0.066-0.528,0.17-1.551
								c0.105-1.033,0.264-2.554,0.555-4.465c0.572-3.765,1.523-9.382,3.647-15.396c2.12-6.003,5.302-12.46,10.855-17.178
								c2.785-2.365,6.228-4.395,10.573-5.768c4.343-1.372,9.683-2.114,15.801-2.136c6.106-0.021,13.012,0.613,20.346,1.72
								c7.343,1.107,15.217,2.682,23.325,4.452c8.108,1.771,16.617,3.764,25.234,5.759
								C118.81,391.183,120.961,391.669,123.077,392.162z"/>
							<path fill="#002868" d="M410.511,257.805c-0.472-2.682-1.219-5.157-2.164-7.451c-6.008-20.326-26.959-30.211-46.313-21.375
								c-1.091,0.498-2.188,1.086-3.242,1.641c-0.034,0.018-0.077,0.034-0.111,0.054c-0.021,0.012-0.036,0.024-0.055,0.036
								c-1.73,1.114-3.807,2.28-5.575,3.624c-0.146,0.11-0.295,0.22-0.437,0.328c-0.271,0.206-0.54,0.422-0.806,0.631
								c-0.262,0.206-0.53,0.403-0.788,0.614c-1.418,1.16-2.735,2.435-3.965,3.664c-0.1,0.1-0.201,0.199-0.302,0.301
								c-0.24,0.246-0.484,0.515-0.724,0.774c-0.435,0.473-0.864,0.961-1.267,1.448c-1.799,2.175-3.327,4.42-4.577,6.595
								c-0.677,1.177-1.284,2.342-1.846,3.476c-1.511,3.046-2.655,5.919-3.626,8.463c-0.38,0.996-2.009,4.964-4.358,9.236
								c-0.619,1.126-1.287,2.273-1.994,3.396c-0.86,3.092-1.508,6.255-1.922,9.458c0.766-0.906,1.525-1.89,2.198-2.93
								c8.9-13.743,12.429-32.771,26.017-43.022c1.412-1.065,3.002-1.994,4.688-2.747c4.395-1.962,8.553-2.93,12.446-3.141
								c16.15-1.532,29.52,9.752,34.075,24.687c0.453,1.486,0.867,3.051,1.196,4.667c1.006,7.164-0.178,15.625-3.266,24.117
								c-3.372,9.272-8.383,17.964-14.267,25.885c-3.895,5.243-8.222,10.285-12.87,15.042c-2.429,2.486-4.951,4.892-7.538,7.22
								c-0.263,0.238-0.523,0.484-0.786,0.719c-10.654,9.51-22.49,17.785-34.991,24.758c0.941,0.482,1.859,1.009,2.705,1.618
								c1.42,1.022,2.35,2.277,2.821,3.72c11.705-7.44,22.72-16.017,32.736-25.578c4.003-3.821,7.85-7.863,11.478-12.055
								c0.656-0.759,1.294-1.523,1.938-2.29c2.923-3.475,5.72-7.05,8.281-10.734c0.451-0.649,0.887-1.309,1.328-1.965
								c4.038-6.003,7.565-12.262,10.299-18.562c1.101-2.537,2.079-5.096,2.911-7.625c0.537-1.633,0.991-3.261,1.399-4.877
								C411.212,271.816,411.65,264.273,410.511,257.805z"/>
						</g>
					</g>
					<linearGradient id="SVGID_3_" gradientUnits="userSpaceOnUse" x1="197.311" y1="184.7368" x2="197.311" y2="172.3794">
						<stop  offset="0" style="stop-color:#001F5E;stop-opacity:0"/>
						<stop  offset="1" style="stop-color:#001F5E"/>
					</linearGradient>
					<path fill="url(#SVGID_3_)" d="M186.944,184.639c7.169-1.961,14.798-3.108,21.062-1.709c-0.767-6.169-1.656-13.529-12.007-9.3
						c-5.036,2.058-9.205,5.624-9.382,11.107C186.722,184.706,186.835,184.668,186.944,184.639z"/>
					<g>
						<path fill="#002868" d="M345.527,384.886c-0.199-0.354-0.729-0.347-1.57,0.01c-0.157,0.155-0.233,0.234-0.391,0.389
							c-1.872,7.539-4.114,13.355-6.721,17.439c-2.609,4.088-4.837,6.496-6.664,7.234c-1.268,0.513-2.149,0.346-2.639-0.477
							c-0.488-0.821-0.867-2.075-1.109-3.734c-0.626-4.292-0.117-9.478,1.522-15.559c1.639-6.076,3.396-11.846,5.271-17.307
							c0.897-1.975,1.409-3.576,1.527-4.801c0.118-1.22,0.129-2.18,0.027-2.869c-0.161-1.101-0.829-2.078-1.992-2.924
							c-1.16-0.844-2.416-1.549-3.755-2.108c-1.343-0.562-2.547-0.96-3.616-1.198c-1.07-0.237-1.678-0.329-1.815-0.275
							c-0.063,0.611-0.205,1.399-0.434,2.368s-0.497,1.957-0.793,2.953c-1.661-0.231-3.237-0.432-4.738-0.591
							c-1.497-0.159-3.644,0.293-6.438,1.333c-4.61,1.717-8.632,4.408-12.068,8.112c-3.439,3.709-6.241,7.788-8.396,12.258
							c-2.157,4.475-3.69,9.021-4.586,13.643c-0.284,1.468-0.476,2.869-0.619,4.226c-2.354,6.703-5.157,12.178-8.4,16.349
							c-4.57,5.878-8.619,9.329-12.121,10.37c-3.51,1.043-5.556-0.646-6.144-5.017c-0.7-5.203-0.066-12.843,1.899-22.923
							c2.044-10.482,4.512-20.883,7.329-31.184c2.734-9.995,5.593-19.96,8.61-29.873c2.798-9.193,4.714-15.485,5.75-18.847
							c0.707-2.604,0.882-5.256,0.518-7.944c-0.336-2.481-1.441-4.347-3.306-5.585c-1.865-1.239-3.908-2.174-6.106-2.792
							c-2.199-0.618-4.269-1.025-6.194-1.208c-1.924-0.182-3.106-0.325-3.542-0.416c0.162,1.254,0.116,2.889-0.145,4.906
							c-0.262,2.023-0.57,4.06-0.932,6.109c-0.511,2.871-0.767,4.309-1.277,7.179c-0.632,3.213-1.993,8.955-4.069,17.208
							c-2.311,9.185-4.407,18.438-6.361,27.708c-2.159,10.24-3.935,20.57-5.318,30.944c-1.39,10.419-1.616,19.303-0.646,26.609
							c0.285,2.149,0.689,4.033,1.216,5.66c-0.3,0.226-0.593,0.447-0.937,0.713c-2.164,1.674-4.863,2.925-8.086,3.73
							c-0.561,0.14-1.133,0.238-1.692,0.305c-0.567,0.066-1.214,0.12-1.933,0.146c1.863-3.395,3.582-7.678,5.146-12.851
							c1.563-5.169,2.007-10.317,1.337-15.44c-0.595-4.549-2.139-8.348-4.624-11.412c-2.484-3.063-8.293-5.736-15.214-1.102
							c-3.738,2.503-8.767,13.12-9.028,21.567c-0.023,0.739-0.019,1.506,0.021,2.292c0.048,0.945,0.128,1.85,0.236,2.709
							c0.487,3.867,1.591,7.699,3.291,11.459c1.7,3.761,4.518,6.399,8.455,7.862c-1.039,1.996-2.393,3.513-4.061,4.541
							c-1.67,1.03-2.854,1.61-3.555,1.761c-2.84,0.311-5.145-0.286-6.914-1.771c-1.77-1.484-2.894-4.176-3.385-8.054
							c-0.491-3.874-0.136-7.62,1.053-11.24c1.026-3.125,2.398-6.036,4.071-8.751c-0.447-6.872,1.408-12.06,5.771-19.729
							c-1.096-1.266-1.894-2.053-2.357-2.276c-0.529-0.255-0.942-0.355-1.217-0.301c-0.8,0.464-2.204,1.815-4.207,4.052
							s-3.956,5.154-5.861,8.748c-1.907,3.598-3.502,7.754-4.765,12.471c-1.106,4.134-1.461,8.61-1.063,13.432
							c-1.592,2.954-3.904,6.386-6.776,10.262c-1.887,2.547-4.111,5.39-6.697,8.412c-2.583,3.02-5.489,5.903-8.699,8.621
							c-3.212,2.72-6.688,5.069-10.41,7.01c-3.725,1.941-7.672,3.134-11.829,3.559c-4.153,0.425-7.652,0.034-10.473-1.127
							c-2.826-1.164-5.13-2.866-6.908-5.103c-1.774-2.231-3.151-4.986-4.128-8.244c-0.977-3.255-1.684-6.724-2.116-10.369
							c-1.09-9.196-0.127-18.304,2.897-27.324c3.022-9.014,7.24-17.133,12.646-24.403c5.408-7.273,11.493-13.365,18.268-18.344
							c6.771-4.977,13.45-7.964,20.044-8.961c2.305-0.349,4.483-0.429,6.523-0.236c-2.311,5.785-3.783,10.592-4.402,14.438
							c-0.62,3.85-0.849,6.454-0.679,7.822c0.65,2.517,1.664,4.629,3.058,6.324c1.199,1.554,2.926,2.888,5.168,3.985
							c2.245,1.1,5.292,1.491,9.137,1.124c0.183-0.14,0.274-0.209,0.457-0.349c0.437-0.604,0.631-1.729,0.594-3.378
							c-0.037-1.646,0.127-4.035,0.497-7.156c0.37-3.116,1.145-7.05,2.322-11.812c1.177-4.757,3.202-10.462,6.077-17.143
							c0.112-0.372,0.136-0.896,0.055-1.579c-0.764-3.33-3.708-5.956-8.831-7.964c-5.132-2.011-12.389-2.203-21.773-0.82
							c-10.013,1.476-19.448,5.806-27.287,12.138c-8.301,6.704-15.535,14.822-21.218,23.875c-5.77,9.19-10.121,19.324-12.876,29.793
							c-2.515,9.554-3.649,19.657-2.524,29.499c0.576,5.038,1.868,9.775,3.809,14.146s4.435,8.1,7.48,11.153
							c3.043,3.052,6.515,5.402,10.406,7.023c3.884,1.618,7.996,2.22,12.323,1.786c7.484-0.749,13.85-3.239,19.091-7.345
							c5.237-4.102,9.679-8.037,13.262-11.738c4.35-4.494,7.96-9.229,10.828-14.092c1.457-2.473,2.751-4.844,3.885-7.109
							c0.236,0.738,0.494,1.477,0.805,2.217c0.918,2.188,2.137,4.172,3.649,5.943c1.516,1.774,3.372,3.104,5.57,3.992
							c2.191,0.885,4.767,1.022,7.712,0.395c3.502-0.746,6.424-2.39,8.77-4.912c2.342-2.519,3.8-4.372,4.371-5.535
							c1.177,0.165,2.299,0.19,3.368,0.079s2.093-0.29,3.071-0.532c2.381-0.588,4.471-1.479,6.273-2.681
							c1.795-1.195,3.341-2.443,4.618-3.74c0.509-0.517,0.96-0.998,1.373-1.455c0.177,0.318,0.358,0.625,0.547,0.911
							c1.453,2.2,3.124,3.811,4.966,4.811c1.846,1.002,3.741,1.503,5.668,1.487c1.923-0.016,3.716-0.269,5.364-0.758
							c6.602-1.959,11.723-5.57,15.326-10.726c3.072-4.396,5.472-8.831,7.199-13.289c0.125,0.418,0.253,0.839,0.399,1.279
							c0.765,2.309,1.86,4.365,3.283,6.154c1.428,1.794,3.263,3.109,5.516,3.938c2.255,0.829,5.003,0.661,8.239-0.51
							c2.386-0.863,4.391-1.9,5.997-3.081c1.609-1.183,2.954-2.423,4.031-3.714c1.068-1.282,1.926-2.564,2.557-3.83
							c0.632-1.268,1.183-2.356,1.645-3.27c2.029,2.739,3.938,4.301,5.707,4.701c1.762,0.398,3.575,0.231,5.408-0.507
							c3.096-1.247,5.68-3.522,7.737-6.794c2.058-3.272,3.731-6.653,5.012-10.124c1.279-3.47,2.188-6.681,2.723-9.622
							c0.518-2.852,0.82-4.533,0.911-5.063C345.763,385.268,345.672,385.145,345.527,384.886z M231.062,419.459
							c-0.176,2.544-0.605,5.08-1.286,7.585c-0.683,2.512-1.547,4.775-2.581,6.781c-1.751-0.18-3.067-1.428-3.939-3.731
							c-0.87-2.298-1.41-4.242-1.614-5.816c-0.222-1.712-0.205-3.596,0.036-5.632s0.636-3.964,1.193-5.781
							c0.557-1.814,1.255-3.405,2.085-4.772c0.826-1.36,1.8-2.176,2.918-2.437c1.251,1.914,2.143,4.062,2.665,6.434
							C231.063,414.466,231.237,416.925,231.062,419.459z M316.217,405.988c0.103,0.694,0.19,1.326,0.271,1.879
							c0.081,0.557,0.241,1.153,0.482,1.794c-0.849,1.353-2.097,3.258-3.742,5.711c-1.643,2.449-4.158,4.313-7.528,5.543
							c-2.396,0.874-4.354,1.133-5.876,0.793c-1.519-0.339-2.735-1.092-3.632-2.243c-0.895-1.149-1.562-2.462-1.987-3.933
							c-0.424-1.463-0.746-2.965-0.961-4.507c-0.429-3.077-0.191-6.352,0.72-9.821c0.91-3.467,2.242-6.794,3.995-9.973
							c1.754-3.181,3.788-6.003,6.086-8.443c2.3-2.442,4.717-4.13,7.236-5.069c1.677-0.625,2.981-0.823,3.896-0.588
							c0.919,0.237,2.018,0.702,3.3,1.38c-0.985,4.485-1.749,9.182-2.3,14.078C315.626,397.491,315.625,401.978,316.217,405.988z"/>
						<path fill="#002868" d="M344.421,386.498c0,0.014-0.006,0.04-0.01,0.057C344.423,386.552,344.428,386.536,344.421,386.498z"/>
					</g>
					<radialGradient id="SVGID_4_" cx="59.3618" cy="271.2705" r="120.4892" gradientUnits="userSpaceOnUse">
						<stop  offset="0" style="stop-color:#FFFFFF"/>
						<stop  offset="0.5937" style="stop-color:#EDEDED"/>
						<stop  offset="1" style="stop-color:#DEDEDE"/>
					</radialGradient>
					<path fill="url(#SVGID_4_)" d="M214.223,198.022c0.222,2.163,0.245,4.47-0.006,7.424c-0.106,0.151-0.16,0.225-0.267,0.376
						c-0.257,0.373-0.823,0.809-1.121,0.867c-2.705,0.534-5.301-3.238-20.362-0.54c-22.308,3.996-64.186,11.784-67.191,16.129
						c-5.376,7.772,5.769,125.116-43.007,121.915c-14.318-0.939-25.359-16.107-30.195-28.911
						c-3.549,3.934-11.293,12.85-21.776,11.461c-16.345-2.164-25.063-21.027-26.85-35.67c-3.337-27.351,26.922-77.407,26.922-77.407
						c-0.816-1.413-54.209,21.456-50.519,49.656c0.217,1.656,0.46,3.03,0.781,3.731c1.577,3.443,10.876-1.729,12.85-6.63
						c1.061-2.634,7.397-3.028,5.965,3.003c-2.201,9.266-7.081,23.295-19.519,20.374c-11.609-2.727-18.526-15.376-20.144-26.523
						c-6.173-42.54,47.081-54.421,79.003-51.107c2.514,0.261,5.319,3.151,4.558,4.367c-15.136,24.207-27.731,45.847-27.528,75.298
						c0.066,9.594,3.737,21.412,13.022,26.104c0.253,0.031,0.379,0.048,0.632,0.079c9.08,1.098,17.756-7.114,16.841-11.528
						c-3.898-18.797-11.429-87.028,24.053-84.448c10.181,0.74,17.028,11.271,17.837,20.462c2.054,23.315-4.527,48.025-22.553,65.763
						c0.431,9.417,10.163,19.959,14.859,20.719c43.258,7,40.254-77.707,36.191-100.404c-9.964-1.021-15.118-8.217-15.763-13.729
						c-1.215-10.381,5.218-15.895,9.939-14.999c6.289,1.193,10.338,15.947,11.124,16.238c5.451,2.019,46.347-21.717,70.497-26.56
						C202.643,181.498,213.08,186.844,214.223,198.022z M61.579,288.873c5.566-12.338,25.75-45.667,13.5-57.756
						C56.11,224.361,58.523,278.737,61.579,288.873z M114.798,211.607c0.579,0.023-1.057-11.155-3.625-9.979
						c-2.191,1.003-2.188,2.306-1.849,5.219C109.664,209.763,112.462,211.513,114.798,211.607z"/>
					<radialGradient id="SVGID_5_" cx="151.3931" cy="297.6572" r="30.3382" gradientUnits="userSpaceOnUse">
						<stop  offset="0" style="stop-color:#FFFFFF"/>
						<stop  offset="0.5937" style="stop-color:#EDEDED"/>
						<stop  offset="1" style="stop-color:#DEDEDE"/>
					</radialGradient>
					<path fill="url(#SVGID_5_)" d="M177.708,305.239c-0.446,3.861-3.898,8.862-6.408,12.446
						c-4.365,6.233-11.604,12.854-22.093,13.779c-13.814,1.22-22.373-11.861-23.832-23.952c-1.99-16.493,5.979-41.521,25.037-43.63
						c9.362-1.036,15.783,5.286,16.504,11.772c1.491,13.411-9.076,25.936-22.484,27.094c-4.662,0.402-9.948-2.132-9.948-2.132
						c-0.369,0.126-0.678,5.729-0.346,8.55c1.024,8.698,7.638,16.83,16.351,16.025c6.483-0.599,13.578-6.359,16.936-9.62
						c8.068-7.836,7.698-11.157,8.809-11.31c0.224-0.031,0.666-0.095,0.92,0.11C177.404,304.574,177.728,305.059,177.708,305.239z
						 M134.961,297.032c0.075,0.16,1.374,0.15,2.938,0.043c8.94-0.616,16.001-11.503,15.384-16.648
						c-0.253-2.105-1.48-2.936-3.483-2.759c-2.9,0.256-7.199,2.797-10.47,8.646C137.631,289.351,134.459,295.963,134.961,297.032z"
						/>
					<radialGradient id="SVGID_6_" cx="200.3823" cy="264.3267" r="45.5714" gradientUnits="userSpaceOnUse">
						<stop  offset="0" style="stop-color:#FFFFFF"/>
						<stop  offset="0.5937" style="stop-color:#EDEDED"/>
						<stop  offset="1" style="stop-color:#DEDEDE"/>
					</radialGradient>
					<path fill="url(#SVGID_6_)" d="M231.416,281.619c-0.786-0.083-1.063-0.284-1.063-0.284s-3.321,8.364-16.554,15.316
						c5.673-10.008,8.515-21.441,7.154-32.917c-1.276-10.764-9.777-19.384-21.259-17.155c-2.688,0.522-5.208,1.163-7.108,2.274
						c3.98-13.24,8.282-26.589,9.988-40.364c-2.138-0.289-4.33-0.444-6.684-0.097c-3.747,0.553-7.462,1.252-11.153,2.029
						c-2.894,31.051-19.001,64.828-15.532,95.677c1.438,12.791,7.723,15.313,15.755,14.082c12.046-1.846,15.565-8.703,21.159-13.228
						c11.73-3.315,24.893-15.417,25.925-24.418C232.067,282.343,231.695,281.82,231.416,281.619z M185.322,312.66
						c-2.762,0.425-4.148-0.448-4.622-2.245c-0.353-2.882-0.575-6.85,0.04-12.273c2.27,3.938,7.959,10.823,14.223,9.755
						C191.461,310.626,188.073,312.237,185.322,312.66z M202.458,300.175c-8.888,0.563-12.696-4.599-13.433-11.557
						c-1.14-10.769,3.451-26.465,15.325-29.023c2.401-0.517,5.678,0.542,6.845,12.011
						C212.218,281.649,208.793,292.071,202.458,300.175z"/>
					<radialGradient id="SVGID_7_" cx="192.7925" cy="185.1362" r="30.8717" gradientUnits="userSpaceOnUse">
						<stop  offset="0" style="stop-color:#FFFFFF"/>
						<stop  offset="0.5937" style="stop-color:#EDEDED"/>
						<stop  offset="1" style="stop-color:#DEDEDE"/>
					</radialGradient>
					<path fill="url(#SVGID_7_)" d="M182.074,183.225c7.207-1.887,14.815-2.98,21.078-1.525c-0.761-6.178-1.646-13.555-12.01-9.411
						c-5.043,2.016-9.212,5.547-9.391,11.028C181.857,183.288,181.969,183.252,182.074,183.225z"/>
					<g>
						<radialGradient id="SVGID_8_" cx="148.21" cy="412.8682" r="85.0823" gradientUnits="userSpaceOnUse">
							<stop  offset="0" style="stop-color:#FFFFFF"/>
							<stop  offset="0.5937" style="stop-color:#EDEDED"/>
							<stop  offset="1" style="stop-color:#DEDEDE"/>
						</radialGradient>
						<path fill="url(#SVGID_8_)" d="M147.996,474.022c-4.326,0.409-8.437-0.218-12.314-1.854c-3.892-1.644-7.362-4.009-10.407-7.08
							c-3.042-3.067-5.536-6.822-7.474-11.2c-1.94-4.383-3.231-9.122-3.808-14.167c-1.125-9.843,0.01-19.944,2.528-29.491
							c2.755-10.444,7.104-20.558,12.876-29.727c5.684-9.027,12.92-17.103,21.226-23.764c7.848-6.294,17.282-10.573,27.285-11.991
							c9.381-1.33,16.637-1.098,21.764,0.94c5.119,2.036,8.264,4.811,8.827,8.012c0.113,0.642,0.073,1.232-0.057,1.578
							c-2.442,6.478-4.899,12.363-6.077,17.112c-1.179,4.756-1.951,8.689-2.322,11.805c-0.371,3.121-0.535,5.509-0.499,7.153
							c0.036,1.65-0.159,2.774-0.596,3.374c-0.183,0.139-0.274,0.21-0.457,0.349c-3.848,0.346-6.89-0.063-9.131-1.174
							c-2.243-1.111-3.963-2.498-5.166-4.016c-1.345-1.695-2.607-3.95-3.058-6.337c-0.239-1.268,0.063-3.978,0.685-7.825
							c0.62-3.841,4.741-13.853,4.398-14.417c-0.213-0.351-4.217-0.135-6.521,0.202c-6.591,0.963-13.27,3.915-20.037,8.854
							c-6.779,4.946-12.864,11.001-18.271,18.247c-5.407,7.245-9.627,15.334-12.653,24.335c-3.027,9.006-3.993,18.112-2.9,27.321
							c0.433,3.648,1.137,7.114,2.114,10.375c0.978,3.267,2.352,6.029,4.125,8.271c1.775,2.244,4.078,3.961,6.907,5.141
							c2.825,1.178,6.317,1.584,10.475,1.182s8.101-1.575,11.825-3.497c3.722-1.921,7.195-4.249,10.407-6.951
							c3.21-2.701,6.112-5.566,8.695-8.574c2.582-3.008,4.813-5.843,6.697-8.378c3.979-5.354,6.851-9.87,8.348-13.448
							c1.496-3.575,2.41-6.445,2.732-8.596c0.321-2.145,0.467-3.704,0.434-4.652c-0.032-0.945,0.525-1.535,1.683-1.748
							c0.492-0.09,0.85,0.022,1.056,0.331s0.336,0.634,0.377,0.974c0.145,1.188-0.053,3.325-0.598,6.389
							c-0.546,3.068-1.622,6.621-3.231,10.658c-1.61,4.042-3.85,8.501-6.714,13.343c-2.866,4.845-6.475,9.561-10.824,14.032
							c-3.583,3.685-8.022,7.597-13.258,11.67C161.846,470.86,155.483,473.313,147.996,474.022z"/>
						
							<radialGradient id="SVGID_9_" cx="265.0171" cy="367.0283" r="51.0488" gradientTransform="matrix(1 0 0 1.583 0 -213.9812)" gradientUnits="userSpaceOnUse">
							<stop  offset="0" style="stop-color:#FFFFFF"/>
							<stop  offset="0.5937" style="stop-color:#EDEDED"/>
							<stop  offset="1" style="stop-color:#DEDEDE"/>
						</radialGradient>
						<path fill="url(#SVGID_9_)" d="M279.517,316.809c-0.964,3.32-2.954,9.646-5.754,18.823
							c-3.019,9.896-5.872,19.857-8.605,29.832c-2.817,10.283-5.297,20.679-7.344,31.149c-1.969,10.073-2.598,17.711-1.904,22.914
							c0.583,4.374,2.626,6.075,6.13,5.054c3.503-1.021,7.552-4.448,12.124-10.305c4.569-5.853,8.261-14.238,11.066-25.104
							c0.229-0.205,0.343-0.31,0.571-0.516c0.619-0.203,1.282-0.099,1.985,0.315c0.281,0.165,0.422,0.247,0.703,0.412
							c-0.058-0.412-0.302,1.346-0.727,5.264c-0.425,3.922-1.521,8.503-3.275,13.723c-1.757,5.227-4.435,10.427-8.034,15.559
							c-3.605,5.14-8.716,8.732-15.316,10.647c-1.652,0.479-3.439,0.718-5.364,0.723s-3.82-0.511-5.654-1.52
							c-1.837-1.01-3.509-2.621-4.968-4.836c-1.455-2.208-2.47-5.409-3.019-9.596c-0.961-7.321-0.74-16.197,0.652-26.614
							c1.386-10.367,3.167-20.688,5.327-30.921c1.955-9.261,4.054-18.499,6.368-27.675c2.081-8.248,3.437-13.981,4.072-17.194
							c0.509-2.868,0.762-4.304,1.27-7.172c0.365-2.051,0.684-4.084,0.941-6.102c0.258-2.019,0.069-4.84,0.143-4.907
							c0.06-0.055,1.619,0.243,3.538,0.438c1.928,0.195,3.989,0.609,6.188,1.239c2.201,0.63,4.245,1.574,6.105,2.823
							c1.857,1.247,2.959,3.121,3.297,5.604C280.402,311.562,280.255,314.266,279.517,316.809z"/>
						<radialGradient id="SVGID_10_" cx="312.5366" cy="388.2432" r="32.3774" gradientUnits="userSpaceOnUse">
							<stop  offset="0" style="stop-color:#FFFFFF"/>
							<stop  offset="0.5937" style="stop-color:#EDEDED"/>
							<stop  offset="1" style="stop-color:#DEDEDE"/>
						</radialGradient>
						<path fill="url(#SVGID_10_)" d="M342.768,380.498c-0.007,0-0.391,2.183-0.925,5.115s-1.44,6.143-2.719,9.61
							c-1.277,3.464-2.951,6.837-5.007,10.095c-2.061,3.265-4.644,5.524-7.737,6.756c-1.829,0.728-3.636,0.889-5.4,0.478
							c-1.77-0.412-5.613-4.745-5.697-4.738c-0.151,0.013-1.009,2.002-1.645,3.267c-0.635,1.262-1.487,2.541-2.559,3.819
							c-1.074,1.281-2.416,2.513-4.021,3.686c-1.609,1.177-3.612,2.201-5.994,3.052c-3.234,1.155-5.985,1.302-8.229,0.462
							c-2.246-0.841-4.092-2.166-5.514-3.964c-1.42-1.796-2.516-3.863-3.273-6.181c-0.756-2.313-1.256-4.319-1.488-6.003
							c-0.484-3.512-0.277-7.583,0.619-12.204c0.896-4.617,2.428-9.16,4.586-13.623c2.156-4.457,4.951-8.521,8.389-12.209
							c3.438-3.689,7.455-6.359,12.061-8.051c2.795-1.026,4.941-1.469,6.438-1.302c1.486,0.166,4.293,0.893,4.723,0.619
							c0.305-0.193,0.572-1.982,0.8-2.949c0.227-0.964,0.261-2.137,0.434-2.364c0.043-0.058,0.744,0.039,1.813,0.281
							c1.067,0.242,2.275,0.646,3.613,1.217c1.332,0.567,2.592,1.279,3.752,2.131c1.156,0.849,1.823,1.834,1.982,2.938
							c0.1,0.692,0.091,1.648-0.027,2.868c-0.119,1.223-0.762,2.878-1.525,4.793c-2.033,5.1-3.637,11.212-5.277,17.283
							c-1.641,6.072-2.15,11.257-1.521,15.555c0.242,1.662,0.612,2.915,1.102,3.74c0.492,0.829,1.372,1,2.641,0.494
							c1.825-0.729,4.047-3.13,6.654-7.201s4.851-9.88,6.723-17.41c0.157-0.154,0.236-0.229,0.394-0.383
							c0.841-0.354,1.365-0.356,1.566-0.002C342.697,380.525,342.768,380.498,342.768,380.498z M313.964,404.798
							c0.036-0.376-0.402-1.243-0.482-1.8c-0.08-0.556-0.171-1.181-0.271-1.879c-0.581-4.03-0.59-8.5-0.035-13.402
							c0.554-4.897,3.004-12.556,2.307-14.069c-0.241-0.523-2.384-1.156-3.298-1.398c-0.917-0.242-2.219-0.05-3.899,0.568
							c-2.512,0.925-4.92,2.599-7.221,5.032c-2.297,2.429-4.332,5.237-6.084,8.407c-1.755,3.174-3.09,6.492-4,9.953
							c-0.911,3.462-1.15,6.743-0.721,9.819c0.216,1.544,0.538,3.049,0.961,4.518c0.424,1.469,1.083,2.788,1.98,3.943
							c0.898,1.157,2.11,1.912,3.631,2.26c1.52,0.348,3.477,0.099,5.865-0.761c3.371-1.213,5.882-3.061,7.527-5.504
							C311.869,408.043,313.882,405.65,313.964,404.798z"/>
						<g>
							<radialGradient id="SVGID_11_" cx="213.2769" cy="393.1914" r="76.2414" gradientUnits="userSpaceOnUse">
								<stop  offset="0" style="stop-color:#FFFFFF"/>
								<stop  offset="0.5937" style="stop-color:#EDEDED"/>
								<stop  offset="1" style="stop-color:#DEDEDE"/>
							</radialGradient>
							<path fill="url(#SVGID_11_)" d="M246.083,423.108c0.008,0.005,0.017,0.013,0.025,0.018c0.074-0.034,0.137-0.059,0.184-0.069
								C246.208,423.078,246.167,423.087,246.083,423.108z"/>
							<radialGradient id="SVGID_12_" cx="213.1538" cy="401.8398" r="70.3959" gradientUnits="userSpaceOnUse">
								<stop  offset="0" style="stop-color:#FFFFFF"/>
								<stop  offset="0.5937" style="stop-color:#EDEDED"/>
								<stop  offset="1" style="stop-color:#DEDEDE"/>
							</radialGradient>
							<path fill="url(#SVGID_12_)" d="M246.765,423.368c-0.28-0.062-0.498-0.142-0.656-0.242c-0.548,0.257-1.777,1.124-3.697,2.597
								c-2.167,1.662-4.866,2.896-8.082,3.683c-0.564,0.137-1.131,0.239-1.694,0.303c-0.567,0.063-1.215,0.112-1.933,0.133
								c1.867-3.383,3.586-7.662,5.15-12.824c1.563-5.155,2.009-10.313,1.343-15.438c-0.592-4.553-2.139-8.359-4.62-11.438
								c-2.479-3.077-8.283-5.788-15.205-1.186c-3.735,2.483-8.761,13.075-9.025,21.522c-0.023,0.74-0.019,1.506,0.021,2.291
								c0.048,0.948,0.127,1.855,0.234,2.715c0.484,3.871,1.585,7.702,3.281,11.471c1.698,3.772,4.514,6.428,8.447,7.913
								c-1.039,1.993-2.394,3.507-4.057,4.523c-1.668,1.02-2.852,1.595-3.555,1.741c-2.839,0.298-5.137-0.315-6.904-1.811
								c-1.766-1.493-2.895-4.19-3.385-8.073c-0.489-3.877-0.13-7.625,1.059-11.236c1.027-3.121,2.395-6.023,4.067-8.729
								c-0.44-6.879,1.414-12.055,5.776-19.701c-1.095-1.272-1.895-2.065-2.355-2.291c-0.529-0.26-0.935-0.361-1.213-0.306
								c-0.799,0.457-2.204,1.802-4.207,4.026c-2.006,2.228-3.958,5.139-5.863,8.721c-1.908,3.587-3.502,7.737-4.765,12.447
								c-1.264,4.712-1.547,9.885-0.851,15.499c0.268,2.157,0.865,4.344,1.783,6.534c0.917,2.188,2.137,4.181,3.651,5.964
								c1.512,1.779,3.364,3.123,5.559,4.022c2.19,0.898,4.763,1.05,7.706,0.439c3.501-0.727,6.426-2.361,8.77-4.869
								c2.341-2.505,3.796-4.348,4.367-5.51c1.172,0.171,2.3,0.202,3.368,0.096c1.064-0.105,2.091-0.276,3.069-0.512
								c2.382-0.573,4.47-1.462,6.269-2.65c1.793-1.186,3.329-2.424,4.607-3.711c1.276-1.285,2.254-2.39,2.934-3.308
								c0.673-0.909,1.15-1.407,1.431-1.481c0.097,0.063,0.147,0.094,0.244,0.156C247.76,424.282,247.396,423.788,246.765,423.368z
								 M228.128,414.128c-0.175,2.541-0.605,5.069-1.288,7.576c-0.684,2.513-1.543,4.771-2.581,6.77
								c-1.75-0.188-3.064-1.445-3.936-3.753c-0.87-2.306-1.407-4.252-1.608-5.827c-0.219-1.715-0.21-3.593,0.034-5.632
								c0.243-2.038,0.639-3.961,1.197-5.776c0.556-1.807,1.251-3.398,2.083-4.762c0.83-1.359,1.803-2.169,2.916-2.424
								c1.254,1.923,2.145,4.075,2.667,6.452C228.135,409.131,228.302,411.589,228.128,414.128z"/>
						</g>
					</g>
					<radialGradient id="SVGID_13_" cx="318.7642" cy="220.5498" r="6.5594" gradientUnits="userSpaceOnUse">
						<stop  offset="0" style="stop-color:#FFFFFF"/>
						<stop  offset="0.5937" style="stop-color:#EDEDED"/>
						<stop  offset="1" style="stop-color:#DEDEDE"/>
					</radialGradient>
					<path fill="url(#SVGID_13_)" d="M318.509,227.271c2.757-1.051,5.055-3.958,5.973-7.211c0.248-0.881,0.342-1.707,0.209-2.637
						c-0.449-3.157-3.205-4.826-6.695-3.501c-3.492,1.326-5.685,5.077-5.135,8.995C313.305,226.085,315.012,228.603,318.509,227.271
						z"/>
					<g>
						<path fill="#FF7600" d="M241.162,378.926c-12.296,0.759-24.258,0.892-36.567,0.409c-0.385,1.933-0.667,3.656-0.844,5.146
							c-0.272,2.291-0.421,4.141-0.46,5.521c2.746-3,3.994-3.93,4.837-4.404c0.22-0.125,0.329-0.187,0.549-0.312
							c0.239-0.048,0.355-0.07,0.595-0.118c0.99-0.197,2.165-0.048,3.451,0.571c0.469,0.226,0.942,0.555,1.475,1.035
							c0.445-0.407,0.888-0.764,1.333-1.058c2.847-1.878,5.777-2.922,8.708-3.09c4.405-0.253,8.635,1.537,11.298,4.831
							c1.298,1.605,2.363,3.397,3.22,5.348c0.106-0.016,0.205-0.03,0.307-0.047c0.005-0.043,0.01-0.087,0.016-0.131
							C239.634,388.111,240.394,383.492,241.162,378.926z"/>
						<path fill="#FF7600" d="M290.607,369.114c-8.05,2.542-16.166,4.6-24.3,6.22c-1.085,4.304-2.086,8.56-2.999,12.756
							c6.544-1.582,13.069-3.462,19.564-5.618c0.495-1.205,1.032-2.407,1.604-3.59C286.143,375.43,288.213,372.164,290.607,369.114z
							"/>
						<path fill="#FF7600" d="M144.738,390.636c13.143,2.073,26.101,3.574,39.371,4.554c-1.111-0.866-2.071-1.819-2.86-2.848
							c-1.659-2.039-2.939-4.679-3.724-7.751c-0.038-0.203-0.058-0.304-0.096-0.507c-0.13-1.048-0.203-2.984,0.521-7.766
							c-5.284-0.869-10.515-1.891-15.7-3.041c-0.132,0.096-0.27,0.181-0.406,0.28C155.563,378.13,149.809,383.9,144.738,390.636z"/>
						<path fill="#FF7600" d="M119.554,385.217c0.75,0.18,1.522,0.376,2.281,0.563c1.357-2.58,2.817-5.108,4.381-7.582
							c2.742-4.337,5.792-8.39,9.095-12.178c-1.549-0.486-3.101-0.984-4.63-1.503c-2.142-0.726-4.302-1.469-6.428-2.193
							c-2.232-0.76-4.483-1.513-6.711-2.286c-8.708-3.022-17.359-6.088-25.942-9.034c-8.588-2.948-17.186-5.809-25.771-8.28
							c-8.584-2.472-17.266-4.596-25.878-5.972c-8.608-1.375-17.353-1.908-25.532-1.251c-8.186,0.658-15.915,2.616-22.333,5.593
							c-6.438,2.985-11.676,6.896-15.865,10.844c-4.213,3.97-7.47,8.117-10.029,11.959c-5.126,7.695-8.063,14.378-9.876,18.857
							c-0.905,2.236-1.583,4.008-2.01,5.176c-0.291,0.794-0.491,1.314-0.588,1.576c10.624-2.707,15.935-4.187,26.547-7.401
							c7.35,11.795,14.713,23.582,22.129,35.336c0.083,0.043,0.125,0.063,0.208,0.106c0,0,0.061-0.531,0.165-1.551
							c0.106-1.034,0.265-2.548,0.557-4.462c0.575-3.768,1.52-9.368,3.643-15.371c2.12-5.994,5.309-12.427,10.866-17.108
							c2.786-2.347,6.23-4.355,10.579-5.701c4.346-1.345,9.691-2.049,15.817-2.031c6.116,0.018,13.022,0.697,20.367,1.854
							c7.343,1.156,15.224,2.782,23.336,4.607c8.118,1.826,16.632,3.867,25.25,5.924
							C115.286,384.208,117.438,384.709,119.554,385.217z"/>
						<radialGradient id="SVGID_14_" cx="365.1108" cy="289.1016" r="57.032" gradientUnits="userSpaceOnUse">
							<stop  offset="0" style="stop-color:#FFFFFF"/>
							<stop  offset="0.5937" style="stop-color:#EDEDED"/>
							<stop  offset="1" style="stop-color:#DEDEDE"/>
						</radialGradient>
						<path fill="url(#SVGID_14_)" d="M406.776,252.721c-0.468-2.683-1.211-5.168-2.156-7.466
							c-5.967-20.283-26.797-30.431-46.218-21.687c-1.093,0.492-2.193,1.09-3.24,1.621c-0.038,0.02-0.074,0.033-0.113,0.055
							c-0.02,0.011-0.036,0.023-0.056,0.034c-1.904,1.063-3.782,2.259-5.566,3.586c-0.149,0.112-0.292,0.218-0.438,0.329
							c-0.27,0.204-0.537,0.416-0.804,0.625c-0.259,0.205-0.532,0.402-0.784,0.609c-1.402,1.157-2.735,2.378-3.964,3.637
							c-0.099,0.102-0.197,0.2-0.295,0.301c-0.244,0.252-0.485,0.51-0.726,0.769c-0.438,0.472-0.862,0.956-1.269,1.441
							c-1.799,2.15-3.316,4.398-4.569,6.568c-0.679,1.175-1.289,2.335-1.85,3.465c-1.511,3.045-2.663,5.907-3.625,8.438
							c-0.378,0.994-2.01,4.952-4.357,9.21c-0.619,1.123-1.283,2.265-1.993,3.383c-0.86,3.087-1.506,6.247-1.922,9.45
							c0.766-0.903,1.526-1.88,2.197-2.915c8.888-13.71,12.409-32.67,26.001-42.866c1.408-1.057,3.002-1.977,4.676-2.714
							c4.388-1.933,8.545-2.882,12.431-3.064c16.173-1.422,29.489,9.945,34.006,24.915c0.451,1.495,0.861,3.061,1.19,4.68
							c1.005,7.169-0.185,15.631-3.269,24.103c-3.365,9.244-8.378,17.909-14.254,25.798c-3.883,5.214-8.213,10.234-12.857,14.962
							c-2.426,2.47-4.946,4.883-7.521,7.172c-0.269,0.239-0.529,0.48-0.792,0.713c-10.643,9.443-22.463,17.64-34.944,24.537
							c0.939,0.486,1.85,1.019,2.695,1.635c1.417,1.032,2.345,2.295,2.814,3.742c11.688-7.37,22.69-15.87,32.699-25.372
							c4-3.798,7.837-7.813,11.461-11.983c0.655-0.753,1.298-1.513,1.941-2.275c2.917-3.456,5.71-7.013,8.271-10.684
							c0.451-0.646,0.888-1.306,1.329-1.959c4.033-5.974,7.554-12.208,10.286-18.5c1.1-2.533,2.077-5.08,2.91-7.611
							c0.537-1.63,0.986-3.251,1.396-4.868C407.472,266.738,407.906,259.196,406.776,252.721z"/>
					</g>
					<path fill="#00368C" d="M54.218,312.977c0,0,1.47,3.016,4.054,7.249c1.294,2.114,2.884,4.521,4.749,6.948
						c0.915,1.222,1.944,2.415,2.996,3.597c1.065,1.172,2.203,2.311,3.4,3.338c0.583,0.538,1.208,1.008,1.813,1.508
						c0.635,0.433,1.239,0.932,1.891,1.309c0.639,0.401,1.279,0.797,1.933,1.125c0.637,0.369,1.297,0.642,1.94,0.918
						c1.296,0.539,2.576,0.916,3.805,1.187c1.227,0.225,2.403,0.381,3.48,0.405c0.543,0.051,1.049,0.003,1.54-0.014
						c0.49-0.029,0.968-0.006,1.391-0.076c0.852-0.136,1.632-0.176,2.237-0.318c1.232-0.252,1.938-0.402,1.938-0.402
						s-0.636,0.308-1.783,0.81c-0.57,0.256-1.314,0.451-2.159,0.712c-0.419,0.139-0.899,0.191-1.392,0.297
						c-0.492,0.091-1.014,0.19-1.576,0.208c-0.562,0.022-1.141,0.104-1.761,0.073c-0.615-0.033-1.255-0.042-1.92-0.129
						c-0.661-0.119-1.348-0.187-2.047-0.364c-0.689-0.197-1.418-0.346-2.124-0.642c-0.712-0.269-1.443-0.538-2.156-0.905
						c-0.356-0.178-0.725-0.341-1.081-0.538c-0.422-0.252-0.633-0.376-1.055-0.629c-0.715-0.403-1.379-0.934-2.077-1.398
						c-0.66-0.528-1.344-1.03-1.978-1.604c-1.273-1.126-2.463-2.357-3.577-3.617c-1.11-1.262-2.11-2.586-3.023-3.891
						c-0.941-1.294-1.727-2.614-2.466-3.863c-0.732-1.253-1.368-2.466-1.925-3.598C55.06,316.149,54.218,312.977,54.218,312.977z"/>
					<path fill="#00368C" d="M9.544,256.484c0,0-0.25,1.023-0.63,2.828c-0.409,1.794-0.861,4.42-1.32,7.592
						c-0.233,1.583-0.418,3.326-0.612,5.166c-0.176,1.847-0.307,3.811-0.383,5.86c-0.089,2.046-0.064,4.193,0.006,6.38
						c0.02,1.089,0.13,2.207,0.191,3.318c0.133,1.124,0.21,2.244,0.388,3.376c0.162,1.129,0.308,2.259,0.547,3.39
						c0.115,0.563,0.203,1.126,0.334,1.688c0.14,0.562,0.276,1.12,0.417,1.682c0.128,0.557,0.276,1.114,0.457,1.663
						c0.161,0.553,0.326,1.099,0.487,1.644c0.367,1.083,0.762,2.157,1.162,3.203c0.89,2.076,1.817,4.073,2.906,5.881
						c0.546,0.902,1.057,1.799,1.659,2.6c0.578,0.81,1.097,1.632,1.715,2.329c0.601,0.709,1.136,1.436,1.718,2.048
						c0.583,0.62,1.135,1.206,1.655,1.759c1.079,1.056,2.078,1.918,2.892,2.641c1.699,1.315,2.671,2.099,2.671,2.099
						s-1.034-0.619-2.848-1.778c-0.869-0.651-1.946-1.435-3.131-2.417c-0.575-0.52-1.187-1.072-1.836-1.658
						c-0.653-0.588-1.24-1.309-1.911-2.009c-0.682-0.694-1.276-1.519-1.938-2.342c-0.679-0.812-1.246-1.734-1.873-2.667
						c-1.234-1.87-2.327-3.951-3.312-6.142c-0.459-1.097-0.906-2.223-1.324-3.366c-0.361-1.145-0.802-2.307-1.069-3.479
						c-0.147-0.584-0.304-1.173-0.451-1.763c-0.144-0.587-0.247-1.178-0.374-1.768c-0.258-1.184-0.422-2.359-0.599-3.536
						c-0.169-1.177-0.245-2.333-0.365-3.495c-0.051-1.145-0.153-2.297-0.16-3.417c-0.028-1.123-0.043-2.233,0.009-3.311
						c0.021-1.085,0.092-2.137,0.16-3.176c0.13-2.078,0.393-4.034,0.67-5.87c0.286-1.832,0.613-3.534,0.976-5.078
						c0.698-3.099,1.517-5.55,2.094-7.259c0.291-0.853,0.563-1.497,0.741-1.939C9.447,256.72,9.544,256.484,9.544,256.484z"/>
					<path fill="#002F8E" d="M119.296,382.625c0,0-1.956-0.616-5.386-1.639c-3.429-1.045-8.354-2.427-14.284-4.046
						c-5.931-1.601-12.889-3.402-20.369-5.09c-3.74-0.852-7.614-1.63-11.547-2.374c-3.942-0.744-7.941-1.374-11.932-1.86
						c-3.986-0.503-7.963-0.864-11.831-0.966c-3.861-0.091-7.641-0.044-11.167,0.39c-3.522,0.429-6.834,1.124-9.78,2.154
						c-2.938,1.041-5.508,2.41-7.632,3.988c-2.121,1.587-3.807,3.358-5.121,5.104c-1.282,1.772-2.206,3.491-2.864,4.979
						c-0.633,1.505-1.104,2.718-1.343,3.588c-0.264,0.86-0.404,1.319-0.404,1.319s0.104-0.48,0.297-1.38
						c0.181-0.903,0.52-2.2,1.079-3.774c0.567-1.568,1.387-3.4,2.576-5.316c1.214-1.894,2.818-3.854,4.933-5.589
						c2.102-1.745,4.678-3.296,7.673-4.461c2.992-1.166,6.36-2.012,9.976-2.498c3.611-0.497,7.457-0.669,11.407-0.573
						c3.949,0.084,7.997,0.421,12.051,0.916c4.055,0.517,8.112,1.185,12.097,1.961c3.981,0.763,7.896,1.67,11.665,2.582
						c3.77,0.91,7.395,1.898,10.819,2.867c3.424,0.962,6.644,1.941,9.604,2.876c5.92,1.855,10.79,3.598,14.185,4.813
						C117.386,381.834,119.296,382.625,119.296,382.625z"/>
					<path fill="#002F8E" d="M142.431,300.928c0,0,0.587-0.075,1.578-0.288c0.995-0.203,2.394-0.579,4.023-1.159
						c1.632-0.568,3.467-1.43,5.297-2.567c0.911-0.569,1.815-1.222,2.681-1.952c0.884-0.708,1.686-1.549,2.458-2.407
						c0.741-0.889,1.46-1.806,2.041-2.798c0.309-0.485,0.587-0.984,0.839-1.496c0.278-0.493,0.495-1.013,0.711-1.524
						c0.236-0.5,0.394-1.025,0.58-1.528c0.196-0.498,0.338-1.004,0.472-1.5c0.307-0.981,0.456-1.953,0.631-2.838
						c0.109-0.897,0.269-1.718,0.314-2.458c0.061-0.737,0.137-1.383,0.136-1.915c0.037-1.07,0.058-1.682,0.058-1.682
						s0.054,0.612,0.133,1.683c0.056,0.539,0.034,1.19,0.043,1.94c0.033,0.756-0.055,1.599-0.125,2.521
						c-0.125,0.916-0.23,1.919-0.488,2.951c-0.111,0.52-0.223,1.055-0.396,1.583c-0.155,0.535-0.322,1.082-0.547,1.613
						c-0.21,0.54-0.418,1.09-0.694,1.617c-0.156,0.323-0.233,0.484-0.39,0.807c-0.181,0.311-0.271,0.466-0.452,0.777
						c-0.606,1.048-1.347,2.021-2.116,2.962c-0.823,0.891-1.669,1.757-2.593,2.489c-0.909,0.759-1.879,1.391-2.841,1.953
						c-0.955,0.574-1.935,1.014-2.873,1.402c-0.94,0.373-1.84,0.693-2.693,0.928c-1.689,0.5-3.156,0.679-4.167,0.801
						C143.023,300.943,142.431,300.928,142.431,300.928z"/>
					<path fill="#002F8E" d="M125.263,218.698c0,0,1.312-0.376,3.604-1.051c2.299-0.642,5.578-1.597,9.55-2.657
						c1.986-0.524,4.136-1.1,6.406-1.725c2.281-0.602,4.68-1.262,7.179-1.883c2.499-0.633,5.082-1.295,7.715-1.94
						c2.624-0.68,5.311-1.281,7.989-1.952c2.699-0.575,5.378-1.231,8.046-1.752c1.331-0.267,2.649-0.568,3.96-0.813
						c1.308-0.24,2.6-0.481,3.875-0.725c1.269-0.26,2.536-0.416,3.766-0.609c1.237-0.177,2.439-0.389,3.622-0.485
						c1.18-0.12,2.328-0.245,3.434-0.365c1.115-0.039,2.194-0.078,3.228-0.121c4.121-0.155,7.565,0.091,9.894,0.613
						c1.177,0.235,2.044,0.604,2.632,0.842c0.563,0.292,0.862,0.45,0.862,0.45s-0.308-0.14-0.885-0.396
						c-0.6-0.209-1.482-0.504-2.652-0.695c-2.332-0.439-5.749-0.475-9.846-0.229c-1.023,0.069-2.088,0.136-3.191,0.203
						c-1.099,0.151-2.238,0.302-3.404,0.453c-1.172,0.125-2.362,0.368-3.584,0.576c-1.219,0.234-2.477,0.377-3.737,0.654
						c-1.267,0.252-2.551,0.503-3.854,0.754c-1.303,0.252-2.607,0.569-3.933,0.847c-2.652,0.538-5.322,1.223-8.006,1.813
						c-2.674,0.647-5.361,1.23-7.987,1.885c-2.628,0.622-5.209,1.258-7.708,1.87c-4.993,1.238-9.67,2.317-13.656,3.3
						c-3.992,0.968-7.328,1.726-9.658,2.283C126.599,218.396,125.263,218.698,125.263,218.698z"/>
					<path fill="#002F8E" d="M175.199,315.412c0,0,0.161,0.097,0.488,0.238c0.311,0.156,0.804,0.314,1.404,0.542
						c0.621,0.18,1.364,0.405,2.248,0.547c0.216,0.04,0.44,0.086,0.669,0.13c0.237,0.019,0.48,0.039,0.729,0.057
						c0.494,0.018,1.004,0.138,1.551,0.096c0.537-0.016,1.102-0.036,1.683-0.054c0.574-0.082,1.168-0.171,1.778-0.258
						c0.612-0.057,1.228-0.261,1.853-0.445c0.311-0.09,0.623-0.18,0.945-0.271c0.321-0.078,0.641-0.186,0.948-0.338
						c0.624-0.271,1.258-0.547,1.9-0.826c0.331-0.123,0.64-0.297,0.941-0.492c0.374-0.218,0.561-0.327,0.935-0.546
						c0.615-0.384,1.278-0.69,1.868-1.14c0.71-0.541,1.065-0.813,1.775-1.356c1.242-0.82,2.279-1.944,3.385-2.934
						c1.129-0.973,2.093-2.106,3.061-3.163c0.482-0.532,0.963-1.056,1.429-1.568c0.474-0.507,0.859-1.073,1.279-1.588
						c0.815-1.05,1.605-2.034,2.343-2.945c0.374-0.443,0.69-0.907,0.995-1.347c0.308-0.437,0.601-0.852,0.876-1.242
						c0.558-0.775,1.046-1.455,1.442-2.013c0.823-1.112,1.295-1.747,1.295-1.747s-0.338,0.713-0.96,1.948
						c-0.321,0.615-0.704,1.365-1.152,2.225c-0.467,0.843-0.916,1.85-1.578,2.835c-0.65,0.999-1.352,2.081-2.114,3.211
						c-0.39,0.558-0.746,1.167-1.195,1.728c-0.455,0.554-0.917,1.119-1.389,1.695c-0.963,1.13-1.871,2.386-3.052,3.414
						c-1.147,1.063-2.211,2.248-3.521,3.148c-0.761,0.563-1.142,0.844-1.902,1.405c-0.633,0.466-1.349,0.797-2.014,1.192
						c-0.685,0.358-1.321,0.811-2.045,1.049c-0.704,0.268-1.401,0.531-2.086,0.789c-0.335,0.145-0.685,0.246-1.041,0.314
						c-0.349,0.076-0.695,0.152-1.039,0.227c-0.687,0.145-1.348,0.308-2.018,0.316c-0.667,0.039-1.308,0.109-1.927,0.11
						c-0.62-0.05-1.22-0.101-1.794-0.147c-0.576-0.028-1.108-0.197-1.623-0.293c-0.251-0.059-0.502-0.116-0.741-0.171
						c-0.235-0.081-0.463-0.157-0.683-0.232c-0.891-0.271-1.609-0.649-2.208-0.94C175.771,315.919,175.199,315.412,175.199,315.412z
						"/>
					<radialGradient id="SVGID_15_" cx="313.8843" cy="257.4419" r="19.7977" gradientUnits="userSpaceOnUse">
						<stop  offset="0" style="stop-color:#FFFFFF"/>
						<stop  offset="0.5937" style="stop-color:#EDEDED"/>
						<stop  offset="1" style="stop-color:#DEDEDE"/>
					</radialGradient>
					<path fill="url(#SVGID_15_)" d="M316.095,276.474c-2.776,1.049-3.55-0.797-3.804-3.483c-0.898-9.496,2.727-19.702,6.046-28.971
						c1.056-2.169,1.555-4.128,1.344-5.617c-1.053-7.446-10.671-5.627-10.243-6.763c-2.335,13.835-7.75,27.112-6.121,41.089
						c0.791,6.791,5.043,12.552,12.271,9.822c2.775-1.048,5.137-2.967,7.244-5.46c0.416-3.203,1.062-6.363,1.922-9.45
						C322.225,271.635,319.193,275.303,316.095,276.474z"/>
					<radialGradient id="SVGID_16_" cx="241.2905" cy="317.6494" r="52.1942" gradientUnits="userSpaceOnUse">
						<stop  offset="0" style="stop-color:#FFFFFF"/>
						<stop  offset="0.5937" style="stop-color:#EDEDED"/>
						<stop  offset="1" style="stop-color:#DEDEDE"/>
					</radialGradient>
					<path fill="url(#SVGID_16_)" d="M255.186,264.953c-0.171-1.328-0.673-2.009-1.19-1.839
						c-13.317,4.363-16.339,13.336-17.647,16.741c-11.962,31.116-14.757,93.024-26.077,103.902
						c-0.443,0.426-1.654-0.611-1.608-0.663c11.579-12.975,10.547-117.829,22.282-130.889c0.321-0.358,10.791,6.416,10.867,6.43
						c0.143,0.025,5.395-5.292,10.543-6.677c7.539-2.028,10.758,2.121,11.629,8.744c1.071,8.142-3.206,23.741-2.959,24.047
						c1.351,1.675,12.803,2.489,12.877,3.054c0.1,0.755-0.22,1.248-0.775,1.418c-1.475,0.451-11.041-3.041-13.363-0.965
						c-3.282,2.934-9.903,16.539-17.486,18.464c-6.472,1.643-9.528-1.402-9.99-5.034c-1.266-9.934,11.008-13.694,16.172-15.058
						c1.296-0.341,3.279-0.427,3.723-0.796C254.244,284.114,255.675,268.743,255.186,264.953z M240.151,300.561
						c3.139-0.783,10.332-10.146,10.332-10.146c-0.455-0.502-12.773,6.036-12.382,9.081
						C238.224,300.449,238.854,300.884,240.151,300.561z"/>
					<radialGradient id="SVGID_17_" cx="284.5698" cy="265.0142" r="25.1487" gradientUnits="userSpaceOnUse">
						<stop  offset="0" style="stop-color:#FFFFFF"/>
						<stop  offset="0.5937" style="stop-color:#EDEDED"/>
						<stop  offset="1" style="stop-color:#DEDEDE"/>
					</radialGradient>
					<path fill="url(#SVGID_17_)" d="M294.363,241.289c0.076,0.56-0.158,1.105-0.133,1.816c0.185,5.232,6.518,14.61,8.441,24.943
						c2.062,11.074-7.087,22.694-18.051,26.386c-10.955,3.689-17.589-3.371-18.393-9.424c-0.502-3.786,2.749-7.432,4.346-9.16
						c4.877-5.28,10.484-23.74,11.402-32.431c0.183-1.732,0.802-8.309,2.455-8.845c-0.073,0.024-0.109,0.035-0.183,0.059
						c0.075,0.564,7.431,1.438,9.729,5.216C294.161,240.15,294.287,240.731,294.363,241.289z M293.277,272.887
						c-0.794-5.817-9.638-21.354-9.638-21.354c-0.651-0.015-10.396,22.724-10.396,22.724c0.186,0.167,7.963-3.671,7.963-3.671
						c0.002-0.018,0.181-0.062,0.391,0.068c0.209,0.13,0.448,0.45,0.525,1.013c0.205,1.5-12.34,5.411-11.563,11.266
						c0.376,2.831,5.727,6.922,11.824,4.958C288.113,286.046,294.199,279.646,293.277,272.887z"/>
					<path fill="#002F8E" d="M235.132,303.931c0,0,0.136,0.014,0.388,0.018c0.247,0.013,0.619-0.002,1.079-0.008
						c0.465-0.008,1.035-0.064,1.675-0.114c0.646-0.087,1.363-0.168,2.146-0.344c0.781-0.118,1.607-0.423,2.477-0.646
						c0.43-0.167,0.869-0.337,1.318-0.517c0.45-0.159,0.893-0.367,1.336-0.608c0.448-0.238,0.914-0.435,1.35-0.715
						c0.434-0.296,0.871-0.588,1.32-0.874c0.459-0.259,0.854-0.637,1.273-0.983c0.411-0.356,0.847-0.688,1.243-1.065
						c0.456-0.48,0.685-0.72,1.141-1.201c0.378-0.397,0.777-0.781,1.079-1.245c0.324-0.445,0.659-0.88,0.995-1.306
						c0.198-0.256,0.296-0.384,0.494-0.641c0.156-0.219,0.283-0.458,0.425-0.683c0.525-0.917,1.111-1.775,1.592-2.627
						c0.426-0.886,0.849-1.719,1.247-2.491c0.191-0.388,0.39-0.756,0.558-1.118c0.152-0.363,0.293-0.711,0.429-1.035
						c0.279-0.656,0.523-1.227,0.72-1.697c0.414-0.941,0.666-1.484,0.666-1.484s-0.091,0.565-0.289,1.56
						c-0.102,0.496-0.225,1.106-0.386,1.802c-0.077,0.347-0.162,0.714-0.249,1.107c-0.104,0.389-0.267,0.784-0.408,1.204
						c-0.292,0.84-0.615,1.751-0.98,2.712c-0.426,0.939-0.936,1.913-1.464,2.918c-0.138,0.248-0.258,0.51-0.41,0.756
						c-0.199,0.29-0.3,0.434-0.499,0.724c-0.326,0.489-0.669,0.981-1.022,1.469c-0.326,0.51-0.757,0.945-1.167,1.397
						c-0.498,0.54-0.745,0.811-1.243,1.35c-0.447,0.415-0.938,0.779-1.405,1.169c-0.471,0.377-0.922,0.781-1.443,1.069
						c-0.5,0.316-1.004,0.618-1.502,0.906c-0.503,0.279-1.03,0.469-1.532,0.696c-0.992,0.5-2.025,0.675-2.966,0.957
						c-0.96,0.156-1.858,0.331-2.687,0.327c-0.83,0.067-1.576,0-2.229-0.048c-0.656-0.071-1.215-0.163-1.673-0.271
						c-0.454-0.096-0.803-0.21-1.036-0.29C235.255,303.986,235.132,303.931,235.132,303.931z"/>
					<path fill="#002F8E" d="M277.525,291.863c0,0,0.57,0.042,1.576,0.023c1.006-0.025,2.438-0.1,4.139-0.418
						c1.698-0.322,3.676-0.897,5.603-1.969c0.975-0.513,1.912-1.201,2.791-1.971c0.898-0.755,1.688-1.675,2.4-2.655
						c0.352-0.492,0.707-0.987,1.001-1.522c0.328-0.515,0.587-1.064,0.851-1.606c0.51-1.091,0.965-2.201,1.313-3.304
						c0.205-0.544,0.313-1.099,0.479-1.635c0.166-0.537,0.302-1.065,0.406-1.583c0.242-1.037,0.427-2.021,0.581-2.934
						c0.182-0.919,0.262-1.759,0.382-2.509c0.115-0.75,0.184-1.403,0.241-1.942c0.126-1.078,0.218-1.707,0.218-1.707
						s0.078,0.586,0.184,1.631c0.047,0.523,0.117,1.16,0.117,1.907c0.008,0.747,0.072,1.582-0.006,2.518
						c-0.024,0.468-0.046,0.955-0.072,1.46c-0.042,0.507-0.126,1.038-0.191,1.582c-0.058,0.542-0.147,1.102-0.268,1.679
						c-0.117,0.575-0.222,1.165-0.404,1.763c-0.327,1.194-0.712,2.445-1.283,3.674c-0.284,0.616-0.572,1.236-0.934,1.834
						c-0.326,0.613-0.722,1.194-1.125,1.773c-0.844,1.128-1.796,2.196-2.859,3.066c-1.041,0.896-2.181,1.593-3.299,2.122
						c-1.114,0.551-2.234,0.903-3.275,1.135c-1.047,0.252-2.027,0.355-2.918,0.388c-1.784,0.082-3.202-0.153-4.172-0.359
						C278.034,292.079,277.525,291.863,277.525,291.863z"/>
					<path fill="#002868" d="M305.119,275.64c0,0,0.231,0.333,0.678,0.857c0.446,0.523,1.103,1.244,1.982,1.947
						c0.88,0.696,1.993,1.373,3.316,1.658c0.659,0.141,1.363,0.184,2.098,0.106c0.729-0.094,1.484-0.25,2.234-0.591
						c0.754-0.278,1.496-0.699,2.223-1.152c0.354-0.258,0.715-0.489,1.068-0.735c0.346-0.264,0.687-0.527,1.025-0.787
						c0.649-0.575,1.304-1.101,1.885-1.668c0.603-0.543,1.137-1.104,1.656-1.606c0.51-0.507,0.957-1.002,1.376-1.422
						c0.415-0.422,0.767-0.812,1.06-1.124c0.588-0.628,0.943-0.982,0.943-0.982s-0.23,0.437-0.655,1.193
						c-0.22,0.373-0.463,0.841-0.81,1.343c-0.334,0.502-0.689,1.092-1.146,1.688c-0.452,0.601-0.921,1.27-1.511,1.913
						c-0.552,0.67-1.189,1.331-1.868,1.994c-0.358,0.317-0.721,0.636-1.092,0.962c-0.378,0.315-0.782,0.607-1.188,0.902
						c-0.831,0.55-1.71,1.076-2.643,1.447c-0.931,0.392-1.905,0.582-2.832,0.665c-0.939,0.084-1.806-0.102-2.591-0.34
						c-0.789-0.238-1.445-0.661-2.014-1.092c-0.58-0.425-1.026-0.933-1.411-1.42c-0.766-0.976-1.195-1.942-1.455-2.631
						C305.2,276.068,305.119,275.64,305.119,275.64z"/>
					<path fill="#002F8E" d="M183.298,381.953c0,0,0.161,0.272,0.451,0.71c0.287,0.442,0.704,1.053,1.229,1.745
						c0.251,0.353,0.56,0.705,0.86,1.091c0.309,0.378,0.67,0.744,1.012,1.14c0.368,0.369,0.74,0.761,1.159,1.108
						c0.391,0.375,0.813,0.725,1.257,1.046c0.406,0.367,0.894,0.616,1.33,0.935c0.444,0.298,0.923,0.531,1.368,0.794
						c0.454,0.244,0.925,0.424,1.353,0.64c0.427,0.221,0.868,0.335,1.262,0.5c0.403,0.132,0.763,0.321,1.104,0.4
						c0.333,0.091,0.63,0.19,0.877,0.271c0.492,0.162,0.773,0.273,0.773,0.273s-0.292,0.065-0.819,0.137
						c-0.267,0.035-0.588,0.082-0.957,0.111c-0.377,0.054-0.789,0.009-1.246-0.018c-0.448-0.042-0.96-0.034-1.464-0.183
						c-0.505-0.13-1.075-0.212-1.608-0.434c-0.524-0.234-1.112-0.399-1.635-0.723c-0.521-0.313-1.077-0.606-1.557-1.013
						c-0.293-0.236-0.437-0.354-0.729-0.591c-0.231-0.207-0.446-0.438-0.665-0.657c-0.448-0.419-0.786-0.936-1.159-1.394
						c-0.345-0.476-0.634-0.97-0.889-1.447c-0.255-0.475-0.468-0.938-0.63-1.384c-0.347-0.875-0.509-1.649-0.597-2.193
						C183.292,382.274,183.298,381.953,183.298,381.953z"/>
					<path fill="#002F8E" d="M117.775,424.585c0,0-0.042,1.14-0.012,3.125c0.007,1.984,0.162,4.826,0.51,8.217
						c0.171,1.693,0.445,3.527,0.76,5.449c0.362,1.921,0.783,3.941,1.361,5.99c0.26,1.032,0.623,2.051,0.953,3.091
						c0.406,1.019,0.748,2.071,1.213,3.078c0.847,2.062,1.967,4.029,3.214,5.88c1.242,1.858,2.737,3.513,4.333,4.968
						c0.399,0.364,0.843,0.667,1.262,1.004c0.422,0.323,0.817,0.685,1.277,0.94c0.895,0.549,1.751,1.153,2.688,1.544
						c0.455,0.223,0.914,0.439,1.36,0.657c0.464,0.182,0.933,0.332,1.389,0.504c0.461,0.164,0.918,0.328,1.366,0.488
						c0.462,0.111,0.916,0.222,1.371,0.33c0.45,0.108,0.898,0.215,1.332,0.32c0.448,0.094,0.889,0.124,1.317,0.195
						c0.865,0.101,1.698,0.287,2.512,0.304c1.617,0.058,3.113,0.185,4.435,0.087c1.325-0.046,2.484-0.069,3.424-0.219
						c1.894-0.219,2.995-0.328,2.995-0.328s-1.055,0.287-2.925,0.729c-0.932,0.255-2.085,0.401-3.418,0.595
						c-1.323,0.246-2.844,0.284-4.508,0.337c-0.835,0.045-1.707-0.077-2.61-0.115c-0.453-0.034-0.916-0.052-1.379-0.121
						c-0.463-0.083-0.937-0.167-1.416-0.255c-0.475-0.089-0.962-0.179-1.457-0.271c-0.484-0.143-0.975-0.291-1.471-0.438
						c-0.497-0.153-0.997-0.289-1.496-0.474c-0.49-0.215-0.984-0.438-1.486-0.657c-2-0.87-3.948-2.139-5.757-3.643
						c-1.758-1.57-3.395-3.358-4.755-5.356c-1.328-2.01-2.494-4.13-3.365-6.313c-0.93-2.164-1.574-4.381-2.11-6.521
						c-0.548-2.143-0.859-4.239-1.127-6.219c-0.241-1.982-0.382-3.854-0.427-5.578c-0.081-1.723-0.035-3.295,0.012-4.681
						c0.066-1.385,0.145-2.584,0.236-3.571c0.079-0.985,0.198-1.749,0.272-2.271C117.725,424.865,117.775,424.585,117.775,424.585z"
						/>
					<path fill="#002F8E" d="M196.099,425.911c0,0,0.522,2.096,1.612,5.02c0.278,0.729,0.604,1.506,0.955,2.311
						c0.359,0.806,0.794,1.618,1.243,2.449c0.947,1.622,2.081,3.266,3.519,4.533c0.694,0.661,1.474,1.207,2.28,1.666
						c0.413,0.214,0.831,0.414,1.241,0.601c0.439,0.14,0.842,0.349,1.286,0.431c0.437,0.109,0.86,0.226,1.298,0.279
						c0.43,0.07,0.856,0.149,1.276,0.151c0.842,0.068,1.656,0.018,2.418-0.008c0.754-0.109,1.46-0.136,2.081-0.279
						c0.619-0.125,1.176-0.192,1.62-0.323c0.897-0.22,1.427-0.333,1.427-0.333s-0.47,0.274-1.323,0.724
						c-0.423,0.239-0.959,0.453-1.575,0.705c-0.616,0.278-1.34,0.456-2.132,0.688c-0.802,0.164-1.678,0.36-2.621,0.384
						c-0.94,0.062-1.949,0.018-2.96-0.19c-1.011-0.197-2.04-0.527-3.003-1.026c-0.957-0.515-1.877-1.13-2.69-1.874
						c-0.798-0.756-1.524-1.585-2.133-2.473c-0.648-0.866-1.121-1.821-1.576-2.735c-0.438-0.921-0.787-1.85-1.065-2.741
						c-0.294-0.89-0.506-1.749-0.668-2.549C195.944,428.116,196.099,425.911,196.099,425.911z"/>
					<path fill="#002F8E" d="M244.316,416.786c0,0,0.255,0.699,0.771,1.869c0.51,1.175,1.301,2.811,2.396,4.637
						c0.577,0.895,1.205,1.859,1.965,2.771c0.765,0.906,1.611,1.817,2.615,2.566c0.991,0.759,2.135,1.352,3.361,1.729
						c1.247,0.342,2.59,0.375,3.949,0.146c0.408-0.085,0.614-0.129,1.022-0.215c0.34-0.082,0.677-0.228,1.014-0.337
						c0.684-0.192,1.335-0.58,1.998-0.88c0.648-0.346,1.274-0.766,1.911-1.124c0.607-0.438,1.211-0.87,1.806-1.296
						c1.138-0.947,2.258-1.854,3.242-2.829c1.031-0.926,1.914-1.91,2.778-2.776c0.844-0.881,1.572-1.745,2.258-2.479
						c0.68-0.735,1.231-1.423,1.702-1.969c0.956-1.101,1.499-1.724,1.499-1.724s-0.424,0.708-1.194,1.942
						c-0.394,0.608-0.837,1.38-1.444,2.194c-0.597,0.82-1.227,1.784-2.016,2.758c-0.795,0.969-1.611,2.063-2.625,3.095
						c-0.951,1.078-2.065,2.129-3.248,3.174c-0.625,0.492-1.257,0.988-1.897,1.488c-0.682,0.441-1.361,0.923-2.093,1.318
						c-0.743,0.357-1.463,0.792-2.266,1.043c-0.393,0.134-0.783,0.303-1.187,0.409c-0.484,0.11-0.728,0.164-1.212,0.273
						c-1.631,0.257-3.27,0.178-4.754-0.261c-1.476-0.463-2.729-1.275-3.805-2.175c-1.094-0.896-1.913-1.985-2.643-3.027
						c-0.737-1.042-1.275-2.135-1.755-3.141c-0.926-2.038-1.455-3.848-1.758-5.133C244.403,417.546,244.316,416.786,244.316,416.786
						z"/>
					<path fill="#002F8E" d="M314.537,399.388c0,0,0.191,0.387,0.525,1.068c0.342,0.669,0.832,1.62,1.461,2.709
						c0.321,0.539,0.672,1.118,1.063,1.703c0.387,0.591,0.837,1.169,1.307,1.748c0.47,0.586,1.03,1.09,1.592,1.591
						c0.586,0.466,1.228,0.866,1.921,1.121c0.689,0.254,1.423,0.367,2.185,0.323c0.763-0.114,1.536-0.247,2.291-0.63
						c0.756-0.342,1.484-0.79,2.166-1.273c0.348-0.222,0.657-0.52,0.977-0.76c0.323-0.237,0.62-0.497,0.9-0.759
						c0.576-0.506,1.095-0.998,1.54-1.456c0.457-0.444,0.854-0.839,1.163-1.186c0.639-0.674,1.027-1.057,1.027-1.057
						s-0.256,0.463-0.735,1.27c-0.235,0.407-0.543,0.892-0.935,1.423c-0.189,0.271-0.393,0.561-0.611,0.866
						c-0.229,0.292-0.481,0.586-0.748,0.905c-0.513,0.647-1.153,1.285-1.858,1.93c-0.721,0.633-1.528,1.274-2.464,1.762
						c-0.92,0.52-1.962,0.875-3.001,1.018c-1.039,0.093-2.049-0.036-2.95-0.35c-0.876-0.359-1.628-0.872-2.299-1.443
						c-0.651-0.59-1.183-1.265-1.65-1.947c-0.932-1.367-1.527-2.82-1.949-4.098C314.616,401.298,314.537,399.388,314.537,399.388z"
						/>
				</g>
			</g>
			<radialGradient id="SVGID_18_" cx="250.1821" cy="110.3208" r="147.844" gradientUnits="userSpaceOnUse">
				<stop  offset="0" style="stop-color:#C4DBFF"/>
				<stop  offset="0.1392" style="stop-color:#C4DBFF;stop-opacity:0.8608"/>
				<stop  offset="1" style="stop-color:#C4DBFF;stop-opacity:2.862057e-005"/>
			</radialGradient>
			<path opacity="0.4" clip-path="url(#XMLID_4_)" fill="url(#SVGID_18_)" d="M280.054,546.351V112.05
				c-18.979,3.853-42.965,6.934-73.076,8.263v438.944C236.777,557.139,260.843,552.283,280.054,546.351z"/>
		</g>
		<g>
			<linearGradient id="SVGID_19_" gradientUnits="userSpaceOnUse" x1="0.5444" y1="77.7734" x2="347.1577" y2="77.7734">
				<stop  offset="0.0699" style="stop-color:#002861"/>
				<stop  offset="0.6582" style="stop-color:#0056D3"/>
				<stop  offset="1" style="stop-color:#002861"/>
			</linearGradient>
			<path fill="url(#SVGID_19_)" d="M173.769,121.033c137.31,0,170.919-33.414,173.389-37.044
				c-2.51-15.42-17.089-39.262-23.205-48.749l-0.978-0.725H24.563c0,0-20.423,30.615-24.018,49.662
				C3.186,88.956,31.36,121.033,173.769,121.033z"/>
		</g>
		<path fill="#002F8E" d="M328.82,34.154c0,18.862-69.421,34.158-155.051,34.158S18.718,53.017,18.718,34.154
			C18.718,15.296,88.139,0,173.769,0S328.82,15.296,328.82,34.154z"/>
		<linearGradient id="SVGID_20_" gradientUnits="userSpaceOnUse" x1="26.8604" y1="25.2915" x2="319.5171" y2="25.2915">
			<stop  offset="0" style="stop-color:#696969"/>
			<stop  offset="0.5323" style="stop-color:#969696"/>
			<stop  offset="1" style="stop-color:#5C5C5C"/>
		</linearGradient>
		<path fill="url(#SVGID_20_)" d="M309.349,41.052c4.896-2.174,8.326-4.348,10.168-6.401C309.742,23.778,255.78,9.531,173.188,9.531
			C90.601,9.531,36.64,23.778,26.86,34.65c1.85,2.054,5.276,4.228,10.172,6.401c21.016-9.339,69.169-18.715,136.156-18.715
			C240.184,22.337,288.333,31.712,309.349,41.052z"/>
		<linearGradient id="SVGID_21_" gradientUnits="userSpaceOnUse" x1="37.0322" y1="41.0532" x2="309.3491" y2="41.0532">
			<stop  offset="0" style="stop-color:#B3B3B3"/>
			<stop  offset="0.4987" style="stop-color:#A7A7A7"/>
			<stop  offset="1" style="stop-color:#A3A3A3"/>
		</linearGradient>
		<path fill="url(#SVGID_21_)" d="M309.349,41.052c-21.017-9.339-69.165-18.715-136.161-18.715
			c-66.987,0-115.14,9.375-136.156,18.715c21.016,9.347,69.169,18.718,136.156,18.718C240.184,59.77,288.333,50.398,309.349,41.052z
			"/>
		<path fill="#003ABA" d="M24.194,445.462c0,10.031-3.298,18.149-7.366,18.149c-4.075,0-7.374-8.118-7.374-18.149
			c0-10.024,3.298-18.15,7.374-18.15C20.896,427.312,24.194,435.438,24.194,445.462z"/>
		<g>
			<defs>
				<path id="SVGID_22_" d="M309.349,41.052c-21.017-9.339-69.165-18.715-136.161-18.715c-66.987,0-115.14,9.375-136.156,18.715
					c21.016,9.347,69.169,18.718,136.156,18.718C240.184,59.77,288.333,50.398,309.349,41.052z"/>
			</defs>
			<clipPath id="SVGID_23_">
				<use xlink:href="#SVGID_22_"  overflow="visible"/>
			</clipPath>
			<g clip-path="url(#SVGID_23_)">
				<path fill="none" stroke="#868686" stroke-miterlimit="10" d="M233.258,73.212c-26.164,0-73.312-8.895-73.312-19.875
					c0-10.973,47.148-19.871,73.312-19.871s47.373,8.898,47.373,19.871C280.631,64.317,259.422,73.212,233.258,73.212z"/>
				<path fill="#868686" d="M118.811,35.555c23.646,0,66.267,8.042,66.267,17.966c0,9.919-42.621,17.966-66.267,17.966
					c-23.65,0-42.825-8.046-42.825-17.966C75.986,43.598,95.161,35.555,118.811,35.555z"/>
				<g>
					<path fill="#808080" d="M116.297,42.012c15.18,0,27.629,5.608,28.942,12.762c0.08-0.417,0.136-0.833,0.136-1.253
						c0-7.742-13.018-14.015-29.079-14.015c-16.06,0-29.078,6.273-29.078,14.015c0,0.42,0.056,0.836,0.136,1.253
						C88.672,47.621,101.117,42.012,116.297,42.012z"/>
					<path fill="#B3B3B3" d="M116.297,67.532c15.18,0,27.629-5.608,28.942-12.758c-1.313-7.153-13.763-12.762-28.942-12.762
						s-27.625,5.608-28.942,12.762C88.672,61.923,101.117,67.532,116.297,67.532z"/>
				</g>
				<path fill="none" stroke="#868686" stroke-miterlimit="10" d="M243.875,39.506c11.481,0,20.784,6.273,20.784,14.015
					c0,7.738-9.303,14.011-20.784,14.011c-11.48,0-20.792-6.273-20.792-14.011C223.083,45.779,232.394,39.506,243.875,39.506z"/>
				<path fill="#C6C6C5" d="M171.427,51.011c3.299,0,5.98,1.121,5.98,2.51c0,1.385-2.682,2.506-5.98,2.506
					c-3.307,0-5.98-1.121-5.98-2.506C165.447,52.132,168.121,51.011,171.427,51.011z"/>
			</g>
		</g>
		<g>
			<g>
				<path fill="#00255B" d="M290.991,184.329c-1.133,1.693-6.272,5.178-10.988,1.377c-6.093-4.912,0.261-19.791,0.261-19.791
					s-12.162,19.979-0.733,25.604c7.25,3.567,11.962-2.193,12.45-6.309c0.096-0.791,0.228-2.062,0.04-3.429
					C291.812,182.794,291.431,183.669,290.991,184.329z"/>
				<path fill="#004BD1" d="M286.387,175.791c0.549,0.136,1.041,0.304,1.493,0.496c-0.717-0.811-1.309-1.451-1.032-1.959
					c0.636-1.189,4.139,1.711,4.575,4.658c0.04,0.272,0.056,0.542,0.064,0.805c0.275,0.66,0.439,1.337,0.532,1.991
					c0.588-2.878-0.313-6.867-5.721-10.198c-3.967-2.44-6.036-5.668-6.036-5.668S277.752,173.647,286.387,175.791z"/>
				<path fill="#003ABA" d="M280.002,185.706c4.716,3.801,9.855,0.316,10.988-1.377c0.44-0.66,0.821-1.535,1.029-2.548
					c-0.093-0.654-0.257-1.331-0.532-1.991c0.063,3.258-2.402,5.592-3.571,4.575c-1.265-1.097,1.854-1.991,1.762-4.642
					c-0.048-1.403-0.997-2.528-1.798-3.437c-0.452-0.192-0.944-0.36-1.493-0.496c-8.635-2.144-6.124-9.876-6.124-9.876
					S273.91,180.794,280.002,185.706z"/>
				<path fill="#FFFFFF" d="M291.423,178.985c-0.437-2.946-3.939-5.847-4.575-4.658c-0.276,0.508,0.315,1.149,1.032,1.959
					c1.945,0.825,3.026,2.122,3.607,3.503C291.479,179.527,291.463,179.257,291.423,178.985z"/>
				<path fill="#FFFFFF" d="M287.88,176.287c0.801,0.909,1.75,2.034,1.798,3.437c0.092,2.65-3.026,3.545-1.762,4.642
					c1.169,1.017,3.635-1.317,3.571-4.575C290.907,178.409,289.826,177.112,287.88,176.287z"/>
			</g>
			
				<ellipse transform="matrix(0.9057 -0.4239 0.4239 0.9057 -51.5685 138.763)" fill="#FFFFFF" cx="286.124" cy="185.296" rx="1.383" ry="0.981"/>
		</g>
		<g>
			<g>
				<path fill="#003084" d="M266.244,483.967c-0.721,1.81-4.831,6.085-9.991,3.467c-6.669-3.379-3.691-18.534-3.691-18.534
					s-7.394,21.076,4.403,24.059c7.482,1.897,10.74-4.424,10.381-8.366c-0.068-0.753-0.196-1.97-0.645-3.207
					C266.708,482.37,266.524,483.263,266.244,483.967z"/>
				<path fill="#004BD1" d="M260.248,476.905c0.54,0.017,1.032,0.08,1.493,0.168c-0.829-0.616-1.51-1.097-1.354-1.625
					c0.36-1.232,4.207,0.777,5.2,3.443c0.092,0.248,0.16,0.496,0.216,0.74c0.393,0.561,0.685,1.156,0.897,1.753
					c-0.028-2.806-1.653-6.353-7.374-8.386c-4.188-1.494-6.766-4.1-6.766-4.1S251.752,476.617,260.248,476.905z"/>
				<path fill="#003ABA" d="M256.252,487.434c5.16,2.618,9.271-1.657,9.991-3.467c0.28-0.704,0.465-1.597,0.457-2.582
					c-0.213-0.597-0.505-1.192-0.897-1.753c0.713,3.026-1.129,5.696-2.426,4.983c-1.4-0.776,1.341-2.233,0.729-4.691
					c-0.324-1.297-1.437-2.157-2.365-2.851c-0.461-0.088-0.953-0.151-1.493-0.168c-8.495-0.288-7.687-8.006-7.687-8.006
					S249.583,484.055,256.252,487.434z"/>
				<path fill="#FFFFFF" d="M265.587,478.892c-0.993-2.666-4.84-4.676-5.2-3.443c-0.156,0.528,0.524,1.009,1.354,1.625
					c1.981,0.385,3.246,1.378,4.063,2.559C265.748,479.388,265.679,479.14,265.587,478.892z"/>
				<path fill="#FFFFFF" d="M261.741,477.073c0.929,0.693,2.041,1.554,2.365,2.851c0.612,2.458-2.129,3.915-0.729,4.691
					c1.297,0.713,3.139-1.957,2.426-4.983C264.987,478.451,263.722,477.458,261.741,477.073z"/>
			</g>
			<path fill="#FFFFFF" d="M262.946,485.04c0.308,0.416,0.092,1.104-0.493,1.545c-0.584,0.44-1.309,0.46-1.621,0.048
				c-0.308-0.412-0.088-1.104,0.492-1.545C261.909,484.651,262.633,484.632,262.946,485.04z"/>
		</g>
		<g>
			<path fill="#003084" d="M18.218,192.548c-4.263,2.974-8.462-0.316-9.331-1.833c-0.336-0.593-0.613-1.367-0.729-2.246
				c-0.196-1.481,0.084-3.267,1.345-5c-3.931,1.373-4.484,5.166-4.576,6.331c-0.336,4.277,3.675,8.509,8.935,7.988
				c4.147-0.408,5.792-4.081,6.341-7.85C19.779,190.994,19.143,191.903,18.218,192.548z"/>
			<path fill="#ECECEC" d="M19.17,175.573c0,0-1.961,2.644-5.504,4.501c-1.974,1.031-3.299,2.199-4.163,3.395
				c0.252-0.068,0.516-0.126,0.8-0.166c0.084-0.014,0.168-0.018,0.252-0.026c1.041-0.999,2.197-1.493,2.474-0.887
				c0.108,0.242,0.004,0.499-0.216,0.783c6.429-0.566,6.104-6.793,6.104-6.793s2.182,7.42,1.285,13.559
				C22.329,184.671,19.17,175.573,19.17,175.573z"/>
			<path fill="#003ABA" d="M18.918,176.379c0,0,0.324,6.227-6.104,6.793c-0.192,0.252-0.473,0.528-0.785,0.836
				c-0.736,0.731-1.621,1.638-1.749,2.836c-0.232,2.268,2.39,3.216,1.241,4.083c-1.061,0.799-3.038-1.345-2.79-4.133
				c0.02-0.226,0.048-0.452,0.104-0.687c0.232-1.066,0.945-2.089,1.722-2.832c-0.084,0.008-0.168,0.012-0.252,0.026
				c-0.284,0.04-0.548,0.098-0.8,0.166c-1.261,1.733-1.542,3.519-1.345,5c0.116,0.878,0.392,1.653,0.729,2.246
				c0.869,1.517,5.068,4.808,9.331,1.833c0.925-0.645,1.561-1.554,1.986-2.61C21.1,183.799,18.918,176.379,18.918,176.379z"/>
			<path fill="#FFFDF6" d="M12.814,183.172c0.22-0.284,0.324-0.541,0.216-0.783c-0.276-0.606-1.433-0.112-2.474,0.887
				c0.344-0.04,0.704-0.064,1.097-0.056C12.065,183.227,12.445,183.205,12.814,183.172z"/>
			<path fill="#ECECEC" d="M8.834,186.108c-0.056,0.234-0.084,0.46-0.104,0.687c-0.248,2.789,1.729,4.932,2.79,4.133
				c1.149-0.867-1.473-1.815-1.241-4.083c0.128-1.199,1.013-2.105,1.749-2.836c0.313-0.308,0.593-0.584,0.785-0.836
				c-0.369,0.032-0.749,0.054-1.161,0.048c-0.393-0.008-0.753,0.016-1.097,0.056C9.779,184.019,9.067,185.042,8.834,186.108z"/>
			<path fill="#EC694A" d="M14.006,192.266c-0.164,0.426-0.765,0.592-1.341,0.366c-0.581-0.22-0.917-0.747-0.749-1.173
				c0.16-0.429,0.765-0.593,1.337-0.371C13.834,191.311,14.175,191.837,14.006,192.266z"/>
			<path fill="#ECECEC" d="M11.965,191.292c-0.228,0.404,0.056,0.993,0.628,1.309c0.577,0.32,1.221,0.248,1.449-0.158
				c0.224-0.406-0.06-0.995-0.632-1.313C12.837,190.813,12.189,190.884,11.965,191.292z"/>
		</g>
		<g>
			<path fill="#003084" d="M26.328,221.664c-5.985,4.175-11.877-0.444-13.098-2.574c-0.473-0.833-0.86-1.919-1.025-3.152
				c-0.272-2.08,0.12-4.587,1.89-7.021c-5.52,1.93-6.293,7.254-6.425,8.889c-0.468,6.005,5.16,11.945,12.546,11.215
				c5.82-0.572,8.13-5.729,8.903-11.021C28.522,219.482,27.629,220.759,26.328,221.664z"/>
			<path fill="#ECECEC" d="M27.669,197.832c0,0-2.754,3.713-7.73,6.321c-2.77,1.445-4.631,3.086-5.844,4.764
				c0.356-0.094,0.725-0.176,1.125-0.232c0.116-0.02,0.236-0.026,0.353-0.036c1.461-1.403,3.086-2.098,3.475-1.245
				c0.152,0.34,0.004,0.699-0.304,1.099c9.027-0.797,8.571-9.538,8.571-9.538s3.062,10.416,1.805,19.035
				C32.101,210.605,27.669,197.832,27.669,197.832z"/>
			<path fill="#003ABA" d="M27.313,198.964c0,0,0.456,8.741-8.571,9.538c-0.268,0.354-0.661,0.74-1.101,1.175
				c-1.033,1.025-2.277,2.298-2.458,3.981c-0.324,3.185,3.358,4.516,1.745,5.732c-1.489,1.121-4.267-1.887-3.919-5.802
				c0.028-0.318,0.068-0.637,0.148-0.965c0.324-1.497,1.325-2.932,2.414-3.975c-0.116,0.01-0.236,0.016-0.353,0.036
				c-0.4,0.056-0.769,0.138-1.125,0.232c-1.77,2.434-2.162,4.942-1.89,7.021c0.165,1.233,0.552,2.32,1.025,3.152
				c1.221,2.13,7.113,6.749,13.098,2.574c1.301-0.905,2.194-2.182,2.79-3.665C30.375,209.38,27.313,198.964,27.313,198.964z"/>
			<path fill="#FFFDF6" d="M18.742,208.502c0.308-0.4,0.457-0.759,0.304-1.099c-0.388-0.853-2.014-0.158-3.475,1.245
				c0.484-0.056,0.989-0.09,1.541-0.08C17.693,208.578,18.226,208.546,18.742,208.502z"/>
			<path fill="#ECECEC" d="M13.158,212.623c-0.08,0.328-0.12,0.646-0.148,0.965c-0.348,3.915,2.43,6.923,3.919,5.802
				c1.613-1.217-2.069-2.548-1.745-5.732c0.18-1.683,1.425-2.956,2.458-3.981c0.44-0.435,0.833-0.821,1.101-1.175
				c-0.516,0.044-1.049,0.076-1.629,0.066c-0.552-0.01-1.057,0.024-1.541,0.08C14.483,209.691,13.482,211.126,13.158,212.623z"/>
			<path fill="#EC694A" d="M20.419,221.268c-0.232,0.599-1.077,0.831-1.885,0.515c-0.813-0.311-1.285-1.049-1.049-1.647
				c0.224-0.603,1.073-0.833,1.877-0.521C20.175,219.927,20.656,220.665,20.419,221.268z"/>
			<path fill="#ECECEC" d="M17.553,219.9c-0.32,0.568,0.076,1.396,0.881,1.84c0.809,0.448,1.713,0.348,2.033-0.223
				c0.316-0.57-0.084-1.397-0.889-1.843C18.778,219.228,17.866,219.328,17.553,219.9z"/>
		</g>
		<g>
			<g>
				<path fill="#00255B" d="M274.991,128.941c0-4.74,0.517-8.935,1.309-11.561c-1.697,0.431-3.046,6.693-3.046,14.375
					c0,7.964,1.449,14.419,3.23,14.419c0.725,0,1.389-1.068,1.93-2.858c-0.061,0.02-0.124,0.042-0.188,0.042
					C276.44,143.358,274.991,136.903,274.991,128.941z"/>
				<path fill="#004BD1" d="M281.452,128.941c0-7.964-1.441-14.419-3.227-14.419c-0.721,0-1.385,1.069-1.926,2.858
					c0.061-0.02,0.124-0.042,0.185-0.042c1.781,0,3.23,6.455,3.23,14.417c0,4.744-0.517,8.935-1.301,11.561
					C280.111,142.886,281.452,136.625,281.452,128.941z"/>
				<path fill="#003ABA" d="M276.484,117.338c-0.061,0-0.124,0.022-0.185,0.042c-0.792,2.626-1.309,6.821-1.309,11.561
					c0,7.962,1.449,14.417,3.234,14.417c0.064,0,0.128-0.022,0.188-0.042c0.784-2.626,1.301-6.817,1.301-11.561
					C279.714,123.793,278.265,117.338,276.484,117.338z"/>
			</g>
			<path fill="#FFFFFF" d="M279.606,117.642c0.372,1.249,0.356,2.36-0.044,2.482c-0.4,0.124-1.033-0.792-1.413-2.043
				c-0.376-1.249-0.356-2.364,0.048-2.482C278.597,115.479,279.226,116.389,279.606,117.642z"/>
		</g>
	</g>
	<g opacity="0.69">
		<radialGradient id="SVGID_24_" cx="-21.8071" cy="139.0649" r="244.468" gradientUnits="userSpaceOnUse">
			<stop  offset="0" style="stop-color:#003487"/>
			<stop  offset="0.1424" style="stop-color:#003487;stop-opacity:0.8576"/>
			<stop  offset="1" style="stop-color:#003487;stop-opacity:0"/>
		</radialGradient>
		<path fill="url(#SVGID_24_)" d="M47.052,108.131C12.213,98.688,2.177,87.055,0.576,84.23C0.24,86.036,0,87.775,0,89.336
			c0,108.547,0,419.337,0,419.337s12.465,16.265,47.052,30.56V108.131z"/>
		<linearGradient id="SVGID_25_" gradientUnits="userSpaceOnUse" x1="321.6089" y1="540.9063" x2="321.6089" y2="84.0049">
			<stop  offset="0" style="stop-color:#003487"/>
			<stop  offset="1" style="stop-color:#003487;stop-opacity:0"/>
		</linearGradient>
		<path opacity="0.3" fill="url(#SVGID_25_)" d="M347.146,84.004c-1.493,2.174-13.778,14.577-51.468,24.441v432.461
			c38.357-14.963,51.86-33.073,51.86-33.073s0-310.878,0-419.649C347.539,86.887,347.382,85.476,347.146,84.004z"/>
	</g>
	<linearGradient id="SVGID_26_" gradientUnits="userSpaceOnUse" x1="140.5293" y1="561.8828" x2="140.5293" y2="121.0332">
		<stop  offset="0" style="stop-color:#003487;stop-opacity:0"/>
		<stop  offset="1" style="stop-color:#003487"/>
	</linearGradient>
	<path opacity="0.2" fill="url(#SVGID_26_)" d="M121.397,121.049v438.088c11.721,1.389,24.435,2.354,38.265,2.746
		c0-33.386,0-399.688,0-439.289c-13.922-0.218-26.612-0.767-38.261-1.561C121.401,121.039,121.397,121.043,121.397,121.049z"/>
	<linearGradient id="SVGID_27_" gradientUnits="userSpaceOnUse" x1="76.3706" y1="553.7686" x2="76.3706" y2="110.2632">
		<stop  offset="0" style="stop-color:#003487;stop-opacity:0"/>
		<stop  offset="1" style="stop-color:#003487"/>
	</linearGradient>
	<path opacity="0.2" fill="url(#SVGID_27_)" d="M55.539,110.263v432.245c11.657,4.243,25.443,8.17,41.664,11.261
		c0-96.094,0-370.188,0-436.569C80.746,115.342,67.003,112.938,55.539,110.263z"/>
</g>
</svg>
